<?xml version="1.0" standalone="no"?>
<!DOCTYPE svg PUBLIC "-//W3C//DTD SVG 20010904//EN"
 "http://www.w3.org/TR/2001/REC-SVG-20010904/DTD/svg10.dtd">
<svg version="1.0" xmlns="http://www.w3.org/2000/svg"
 width="2048.000000pt" height="2048.000000pt" viewBox="0 0 2048.000000 2048.000000"
 preserveAspectRatio="xMidYMid meet">

<g transform="translate(0.000000,2048.000000) scale(0.100000,-0.100000)"
fill="#000000" stroke="none">
<path d="M4925 20459 c-874 -31 -1486 -132 -2031 -334 -1257 -467 -2219 -1484
-2618 -2765 -130 -421 -197 -835 -248 -1530 -8 -123 -12 -1347 -15 -4787 -3
-4428 -3 -4622 14 -4616 10 4 27 15 37 25 11 10 26 18 33 18 7 0 13 4 13 10 0
5 19 19 42 30 54 26 79 41 98 61 8 8 32 23 52 32 20 10 40 22 43 26 3 5 18 12
33 16 16 3 34 15 42 25 8 11 20 20 27 20 7 0 13 5 13 10 0 6 8 10 19 10 10 0
24 7 31 15 7 8 19 15 26 15 8 0 14 4 14 9 0 5 16 12 35 15 19 4 35 11 35 16 0
6 6 10 13 10 7 0 19 9 27 20 8 11 18 20 22 20 16 0 88 35 88 42 0 5 9 8 20 8
11 0 20 4 20 9 0 5 12 12 26 15 14 4 35 15 46 26 11 10 32 21 46 25 15 4 29
10 32 13 9 12 110 62 125 62 8 0 15 4 15 9 0 5 13 12 30 16 16 4 30 11 30 16
0 5 9 9 20 9 11 0 20 5 20 10 0 6 11 10 25 10 14 0 25 5 25 10 0 6 5 10 12 10
7 0 32 19 56 42 28 27 46 38 49 31 3 -10 8 -9 20 3 8 8 12 18 9 22 -4 3 -11 0
-16 -8 -6 -8 -10 -10 -10 -4 0 16 34 44 53 44 9 0 17 3 17 8 0 4 15 13 33 21
17 7 46 19 64 27 17 8 36 14 42 14 6 0 11 5 11 10 0 6 11 10 23 10 13 0 27 3
31 8 4 4 11 8 14 8 27 6 52 18 52 25 0 5 11 9 24 9 13 0 26 4 28 10 2 5 17 11
33 13 17 3 24 2 17 0 -16 -6 -82 -73 -82 -85 0 -4 8 -4 18 1 22 12 57 23 58
19 1 -2 11 6 23 16 12 11 21 31 21 48 0 23 4 28 25 28 14 0 25 5 25 11 0 5 5
7 11 3 6 -3 7 -9 3 -13 -5 -3 -15 -16 -22 -28 -11 -21 -10 -23 8 -23 11 0 20
4 20 9 0 4 16 11 36 14 40 7 94 29 94 39 0 3 23 9 50 13 28 4 50 11 50 16 0 5
11 9 25 9 14 0 25 5 25 10 0 6 11 10 24 10 14 0 28 5 31 10 3 6 14 10 23 10 9
0 40 22 67 48 47 44 125 82 168 82 9 0 17 5 17 10 0 6 12 10 27 10 l27 0 -27
-28 c-31 -32 -34 -42 -12 -42 8 0 15 5 15 10 0 6 15 10 34 10 19 0 37 4 40 9
4 5 24 12 45 16 23 4 42 14 47 23 3 9 6 946 5 2082 -2 2432 12 3271 65 3895
62 735 215 1318 490 1866 177 354 372 624 669 928 319 325 598 535 961 723
568 293 1196 459 1964 517 585 45 1454 61 3360 61 2720 0 3441 -28 4115 -161
366 -72 732 -190 1060 -342 494 -228 932 -567 1312 -1013 517 -610 837 -1424
943 -2399 30 -283 55 -787 70 -1425 13 -540 13 -3801 0 -4345 -17 -710 -42
-1180 -81 -1505 -84 -706 -291 -1342 -604 -1860 -270 -447 -699 -895 -1140
-1190 -458 -306 -1051 -536 -1665 -645 -179 -32 -181 -32 -148 -34 32 -1 61
-28 54 -48 -4 -9 -1 -13 6 -11 14 5 38 -15 38 -31 0 -6 4 -11 8 -11 4 0 13
-15 20 -33 7 -17 30 -51 52 -74 24 -24 35 -43 28 -45 -8 -3 -4 -13 11 -29 12
-13 37 -43 54 -66 18 -23 40 -43 50 -43 9 0 17 -5 17 -10 0 -12 8 -23 71 -88
26 -27 50 -59 53 -73 16 -55 34 -83 84 -134 32 -31 43 -48 80 -120 9 -16 30
-43 49 -59 18 -16 33 -33 33 -38 0 -5 -12 3 -27 18 -36 36 -40 18 -8 -41 14
-26 25 -59 25 -71 0 -13 5 -24 10 -24 6 0 10 -6 10 -14 0 -7 7 -19 15 -26 12
-10 15 -10 15 4 0 9 -4 16 -10 16 -5 0 -10 9 -10 20 0 29 23 15 38 -23 7 -17
18 -40 23 -49 5 -10 9 -24 9 -31 0 -7 14 -29 30 -48 26 -28 33 -31 40 -19 7
12 10 9 10 -12 0 -16 5 -28 10 -28 6 0 10 -16 10 -35 0 -19 5 -35 10 -35 6 0
10 -11 10 -25 0 -14 5 -25 10 -25 6 0 10 -11 10 -25 0 -14 5 -25 10 -25 6 0
10 -11 10 -23 0 -13 9 -34 20 -47 l20 -23 -7 34 c-3 19 -10 36 -15 37 -4 2 -8
14 -8 26 0 12 -4 26 -9 31 -4 6 -12 24 -16 40 l-7 30 25 -29 c14 -16 28 -44
32 -62 3 -18 11 -35 18 -38 9 -3 9 -7 -1 -13 -10 -7 -8 -14 8 -28 11 -10 20
-26 20 -36 0 -10 5 -21 10 -24 6 -3 10 -17 10 -31 0 -14 7 -27 15 -30 8 -4 15
-13 15 -21 0 -10 6 -12 21 -8 19 6 21 4 15 -19 -4 -15 -2 -26 4 -26 5 0 10 -6
10 -13 0 -7 14 -26 30 -42 16 -16 30 -33 30 -38 0 -5 10 -23 22 -40 12 -17 24
-40 26 -51 3 -23 43 -86 55 -86 4 0 7 -9 7 -20 0 -11 5 -20 10 -20 6 0 10 -11
10 -24 0 -13 11 -31 25 -42 14 -10 25 -26 25 -35 0 -9 7 -22 16 -29 11 -10 14
-23 9 -50 -5 -27 -2 -40 9 -50 9 -7 16 -21 16 -31 0 -10 5 -21 10 -24 6 -3 10
-24 10 -46 0 -21 4 -39 10 -39 5 0 12 -11 16 -25 8 -33 24 -32 25 3 l1 27 7
-25 c4 -15 3 -28 -3 -33 -7 -5 -3 -14 11 -26 12 -10 27 -38 33 -62 7 -24 21
-49 31 -57 10 -7 19 -24 19 -38 0 -13 5 -24 10 -24 6 0 10 -15 10 -32 0 -34
30 -118 42 -118 4 0 9 10 11 22 2 13 3 9 2 -8 -5 -53 -3 -54 165 -44 830 50
1445 194 2026 474 1064 514 1851 1420 2222 2556 160 490 235 984 274 1795 15
329 23 9447 9 10230 -20 1061 -73 1568 -221 2106 -420 1533 -1594 2685 -3125
3068 -454 113 -885 166 -1570 191 -322 12 -10295 11 -10630 -1z m-2245 -12754
c0 -8 -4 -15 -9 -15 -13 0 -22 16 -14 24 11 11 23 6 23 -9z m-490 -149 c0 -3
-4 -8 -10 -11 -5 -3 -10 -1 -10 4 0 6 5 11 10 11 6 0 10 -2 10 -4z m-190 -76
c0 -5 -2 -10 -4 -10 -3 0 -8 5 -11 10 -3 6 -1 10 4 10 6 0 11 -4 11 -10z
m-710 -245 c-7 -8 -18 -15 -25 -15 -8 0 -15 -6 -18 -12 -2 -7 -8 -10 -12 -6
-10 10 33 48 53 48 12 0 12 -3 2 -15z m-90 -95 c0 -5 -4 -10 -10 -10 -5 0 -10
5 -10 10 0 6 5 10 10 10 6 0 10 -4 10 -10z m-70 -30 c0 -5 -5 -10 -11 -10 -5
0 -7 5 -4 10 3 6 8 10 11 10 2 0 4 -4 4 -10z m-30 -20 c0 -5 -4 -10 -10 -10
-5 0 -10 5 -10 10 0 6 5 10 10 10 6 0 10 -4 10 -10z m-580 -304 c0 -3 -4 -8
-10 -11 -5 -3 -10 -1 -10 4 0 6 5 11 10 11 6 0 10 -2 10 -4z m-75 -36 c3 -5 1
-10 -4 -10 -6 0 -11 5 -11 10 0 6 2 10 4 10 3 0 8 -4 11 -10z m-261 -164 c-6
-15 -24 -23 -24 -11 0 8 24 34 28 30 1 -1 0 -10 -4 -19z m-44 -26 c0 -5 -4
-10 -10 -10 -5 0 -10 5 -10 10 0 6 5 10 10 10 6 0 10 -4 10 -10z m-50 -30 c0
-5 -5 -10 -11 -10 -5 0 -7 5 -4 10 3 6 8 10 11 10 2 0 4 -4 4 -10z m-45 -29
c-3 -6 -11 -11 -16 -11 -5 0 -4 6 3 14 14 16 24 13 13 -3z m14365 -3995 c0 -3
-4 -8 -10 -11 -5 -3 -10 -1 -10 4 0 6 5 11 10 11 6 0 10 -2 10 -4z m554 -831
c3 -8 1 -15 -4 -15 -6 0 -10 7 -10 15 0 8 2 15 4 15 2 0 6 -7 10 -15z m226
-360 c0 -8 -4 -15 -10 -15 -5 0 -10 7 -10 15 0 8 5 15 10 15 6 0 10 -7 10 -15z
m410 -770 c0 -8 -4 -15 -10 -15 -5 0 -10 7 -10 15 0 8 5 15 10 15 6 0 10 -7
10 -15z"/>
<path d="M8120 16379 c-1304 -26 -1790 -88 -2320 -296 -324 -127 -568 -285
-823 -533 -352 -341 -576 -743 -711 -1275 -78 -311 -115 -613 -141 -1175 -31
-678 -38 -1361 -30 -3180 7 -1696 13 -2180 25 -2012 4 49 11 76 20 82 10 7 11
10 3 10 -7 0 -13 5 -13 10 0 6 21 10 47 10 37 0 44 -3 35 -12 -28 -28 -13 -38
58 -38 39 0 70 4 70 9 0 5 90 12 200 16 110 4 203 11 206 16 3 5 83 9 178 9
120 0 176 4 184 12 8 8 43 11 107 9 90 -2 95 -2 95 18 0 12 4 21 8 21 5 0 13
17 18 38 7 30 14 38 37 40 16 2 34 -2 42 -8 9 -8 65 -11 164 -11 92 1 151 -3
151 -9 0 -5 -18 -13 -40 -16 -44 -7 -46 -9 -27 -28 9 -9 81 -15 257 -20 135
-4 249 -11 255 -17 5 -5 46 -9 92 -9 49 0 83 -4 83 -10 0 -6 30 -10 70 -10 39
0 70 -4 70 -8 0 -5 51 -12 112 -16 62 -4 117 -11 122 -16 6 -6 36 -10 69 -10
36 0 56 -4 52 -10 -3 -6 -21 -10 -39 -10 -55 0 -126 -12 -126 -21 0 -5 25 -9
55 -9 30 0 55 -4 55 -10 0 -5 25 -10 55 -10 30 0 55 -4 55 -9 0 -5 41 -13 90
-17 50 -3 93 -11 96 -15 3 -5 21 -9 40 -9 36 0 64 -12 103 -45 13 -11 -12 27
-56 85 -433 568 -691 1220 -775 1955 -19 167 -16 647 5 820 79 641 276 1182
622 1705 579 875 1485 1474 2515 1664 256 47 405 60 700 60 295 0 443 -13 700
-60 644 -118 1230 -390 1750 -812 139 -113 424 -399 538 -540 476 -587 756
-1250 848 -2012 22 -180 25 -646 5 -820 -57 -504 -185 -935 -407 -1370 -571
-1120 -1650 -1889 -2900 -2068 -83 -12 -118 -20 -110 -27 31 -28 209 -115 233
-114 10 0 13 3 6 6 -7 2 -13 9 -13 14 0 5 9 4 19 -3 15 -9 17 -15 9 -25 -8
-10 -6 -13 6 -13 9 0 16 -5 16 -11 0 -6 9 -8 20 -4 13 4 22 1 26 -9 3 -9 14
-16 24 -16 10 0 27 -11 38 -25 11 -14 24 -25 29 -25 4 0 20 -11 35 -25 15 -14
31 -25 36 -25 5 0 19 -11 32 -25 13 -14 28 -25 33 -25 5 0 24 -16 43 -35 18
-19 38 -35 42 -35 5 0 25 -16 45 -35 20 -19 40 -35 45 -35 5 0 24 -16 43 -35
19 -19 38 -35 43 -35 5 0 31 -22 58 -50 27 -27 53 -50 57 -50 4 0 31 -22 60
-50 29 -27 56 -50 60 -50 4 0 40 -34 81 -75 41 -41 79 -75 84 -75 12 0 466
-452 466 -464 0 -5 34 -43 75 -84 41 -41 75 -79 75 -84 0 -6 25 -34 55 -63 30
-30 55 -59 55 -65 0 -6 18 -27 40 -47 22 -21 40 -42 40 -49 0 -6 20 -30 45
-53 25 -23 45 -47 45 -55 0 -7 14 -25 30 -39 17 -15 30 -32 30 -38 0 -6 14
-24 30 -39 19 -18 28 -34 24 -44 -4 -10 1 -18 12 -22 33 -12 55 -36 49 -55 -6
-17 20 -86 35 -99 3 -3 12 -20 19 -37 13 -33 14 -33 85 -33 132 0 450 21 630
41 650 73 1181 263 1567 561 189 146 418 387 548 577 183 268 334 640 415
1021 121 568 146 1233 146 3910 0 2796 -27 3433 -170 4007 -105 425 -260 762
-479 1043 -87 112 -273 303 -391 402 -263 220 -613 395 -1009 504 -603 165
-1248 195 -4186 192 -924 -1 -1840 -5 -2035 -9z m6355 -1257 c169 -47 297
-121 415 -241 183 -185 268 -406 257 -670 -5 -144 -23 -221 -77 -337 -122
-264 -338 -440 -628 -511 -101 -25 -293 -22 -405 5 -259 64 -480 240 -599 477
-66 129 -105 328 -92 465 38 422 340 755 752 830 80 15 298 4 377 -18z m-9545
-6992 c0 -5 -6 -10 -12 -10 -7 0 -26 -7 -43 -16 -47 -24 -134 -44 -190 -43
l-50 2 55 7 c49 6 127 34 170 60 20 12 70 12 70 0z m-215 -18 c-11 -2 -23 -9
-27 -16 -6 -8 -8 -7 -8 2 0 6 -4 12 -10 12 -5 0 -10 -7 -10 -15 0 -8 -7 -15
-15 -15 -8 0 -15 -4 -15 -9 0 -5 -8 -11 -17 -15 -10 -3 -24 -9 -30 -12 -19 -9
-15 14 8 47 19 27 24 28 82 27 34 -1 53 -3 42 -6z m525 -12 c0 -5 -4 -10 -10
-10 -5 0 -10 5 -10 10 0 6 5 10 10 10 6 0 10 -4 10 -10z m-90 -20 c0 -6 -42
-10 -105 -10 -63 0 -105 4 -105 10 0 6 42 10 105 10 63 0 105 -4 105 -10z
m-645 -30 c4 -6 -8 -10 -30 -10 -22 0 -34 4 -30 10 3 6 17 10 30 10 13 0 27
-4 30 -10z m-170 -20 c-3 -5 -19 -10 -36 -10 -16 0 -29 5 -29 10 0 6 16 10 36
10 21 0 33 -4 29 -10z m2608 -87 c-7 -2 -21 -2 -30 0 -10 3 -4 5 12 5 17 0 24
-2 18 -5z m92 -13 c3 -5 -3 -10 -14 -10 -12 0 -21 5 -21 10 0 6 6 10 14 10 8
0 18 -4 21 -10z m85 -20 c0 -5 -7 -10 -15 -10 -8 0 -15 5 -15 10 0 6 7 10 15
10 8 0 15 -4 15 -10z m3744 -1596 c5 -14 4 -15 -9 -4 -17 14 -19 20 -6 20 5 0
12 -7 15 -16z m2125 -2053 c12 -11 18 -21 14 -24 -4 -2 -18 6 -31 19 -27 29
-14 32 17 5z m51 -71 c13 -11 18 -20 12 -20 -10 0 -42 27 -42 36 0 8 7 4 30
-16z"/>
<path d="M10035 12730 c-725 -65 -1370 -424 -1799 -1000 -557 -747 -649 -1748
-237 -2585 129 -261 265 -453 469 -658 404 -409 904 -653 1492 -728 122 -16
436 -16 565 0 563 68 1078 316 1471 706 405 402 644 886 726 1470 7 50 13 186
13 305 0 281 -28 475 -102 720 -121 403 -333 753 -637 1055 -377 374 -863 618
-1388 695 -151 23 -438 33 -573 20z"/>
<path d="M2743 7625 c0 -38 2 -53 4 -32 2 20 2 52 0 70 -2 17 -4 1 -4 -38z"/>
<path d="M2490 7600 c0 -5 5 -10 10 -10 6 0 10 5 10 10 0 6 -4 10 -10 10 -5 0
-10 -4 -10 -10z"/>
<path d="M10553 6383 c9 -2 25 -2 35 0 9 3 1 5 -18 5 -19 0 -27 -2 -17 -5z"/>
<path d="M10378 6373 c23 -2 61 -2 85 0 23 2 4 4 -43 4 -47 0 -66 -2 -42 -4z"/>
<path d="M12920 4309 c0 -5 5 -7 10 -4 6 3 10 8 10 11 0 2 -4 4 -10 4 -5 0
-10 -5 -10 -11z"/>
<path d="M12888 4123 c23 -2 59 -2 80 0 20 2 1 4 -43 4 -44 0 -61 -2 -37 -4z"/>
<path d="M15457 710 c6 -23 31 -45 40 -36 3 3 1 6 -5 6 -7 0 -12 9 -12 19 0
10 -6 21 -14 24 -10 4 -12 0 -9 -13z"/>
</g>
</svg>
