<?xml version="1.0" standalone="no"?>
<!DOCTYPE svg PUBLIC "-//W3C//DTD SVG 20010904//EN"
 "http://www.w3.org/TR/2001/REC-SVG-20010904/DTD/svg10.dtd">
<svg version="1.0" xmlns="http://www.w3.org/2000/svg"
 width="341.000000pt" height="148.000000pt" viewBox="0 0 341.000000 148.000000"
 preserveAspectRatio="xMidYMid meet">

<g transform="translate(0.000000,148.000000) scale(0.100000,-0.100000)"
fill="#000000" stroke="none">
<path d="M0 740 l0 -740 1705 0 1705 0 0 740 0 741 -240 -2 -240 -1 1 -41 c1
-40 2 -40 9 -12 4 17 8 22 9 12 0 -10 5 -15 11 -12 6 4 7 -6 3 -25 -5 -26 -2
-32 15 -37 17 -4 18 -8 9 -18 -13 -14 -41 0 -32 15 3 5 1 12 -5 15 -6 4 -9 1
-8 -6 2 -6 -2 -13 -9 -16 -8 -3 -11 3 -8 17 2 11 0 18 -6 15 -5 -4 -7 -11 -4
-16 9 -13 -9 -11 -25 4 -12 10 -12 9 -1 -5 12 -15 10 -19 -13 -28 -40 -15 -31
-20 29 -17 30 2 55 0 55 -5 0 -5 4 -6 10 -3 18 11 51 14 45 4 -4 -5 -11 -6
-17 -3 -6 4 -8 -2 -4 -17 7 -23 7 -24 -9 -4 -15 19 -16 18 -13 -14 2 -26 -2
-37 -22 -49 -15 -11 -21 -12 -16 -4 5 9 1 15 -13 19 -29 7 -26 23 4 23 14 0
28 7 32 15 8 22 2 25 -39 19 -24 -4 -35 -11 -31 -19 3 -10 -2 -12 -19 -9 -21
5 -22 4 -5 -9 23 -19 22 -27 -4 -27 -11 0 -17 -4 -14 -10 3 -5 1 -10 -5 -10
-7 0 -10 -7 -6 -15 5 -13 2 -14 -17 -5 l-22 11 22 -19 c12 -11 19 -22 16 -26
-4 -3 -1 -6 5 -6 5 0 19 -3 29 -7 16 -6 17 -5 3 12 -14 17 -14 17 7 4 18 -11
25 -11 35 -1 9 9 9 12 -1 12 -7 0 -10 4 -7 9 3 5 -2 15 -11 22 -9 8 -14 9 -10
3 4 -7 0 -15 -9 -18 -11 -4 -14 -1 -12 12 2 10 12 17 25 16 12 0 20 3 17 8 -3
4 1 8 9 8 8 0 14 -8 13 -17 0 -10 5 -17 12 -15 8 1 11 -2 7 -8 -3 -6 -11 -7
-17 -4 -6 4 -9 1 -6 -7 3 -8 10 -14 15 -14 6 0 15 -3 19 -7 3 -4 -3 -6 -14 -3
-12 2 -30 -6 -44 -19 -13 -13 -32 -27 -42 -33 -19 -10 -18 -11 2 -22 19 -10
23 -9 31 13 6 13 15 27 20 31 15 9 14 -8 -1 -23 -6 -6 -8 -15 -4 -19 4 -4 12
0 17 10 6 9 15 15 20 11 6 -4 6 -11 -2 -20 -6 -8 -8 -14 -3 -14 5 0 3 -4 -5
-9 -11 -7 -10 -11 6 -19 12 -7 24 -7 34 -1 12 8 11 12 -6 26 -18 14 -18 15 -2
9 10 -3 25 -6 32 -6 14 0 9 -40 -7 -51 -5 -3 4 -29 22 -57 68 -112 78 -291 21
-406 -37 -76 -83 -118 -161 -147 -75 -29 -221 -23 -293 11 -60 28 -130 106
-156 173 -11 30 -21 43 -21 32 -1 -11 -4 -14 -7 -7 -6 14 -33 16 -33 2 0 -5
-5 -10 -11 -10 -5 0 -7 5 -4 10 3 6 1 10 -5 10 -6 0 -9 4 -6 9 3 5 15 7 26 4
15 -4 20 -1 19 13 0 13 -2 15 -6 5 -4 -10 -9 -8 -20 10 -8 13 -12 16 -9 7 3
-10 2 -18 -3 -18 -15 0 -20 13 -11 31 7 12 7 20 0 24 -7 4 -8 11 -1 18 14 17
14 29 1 37 -6 4 -12 19 -14 33 -1 15 -6 30 -9 34 -12 12 -7 23 11 24 14 0 14
2 -3 9 -11 5 -14 9 -7 9 7 1 11 5 8 10 -3 4 -40 2 -83 -5 -42 -8 -78 -13 -79
-11 -1 1 -9 16 -17 33 -44 87 -201 98 -278 19 -44 -45 -57 -84 -58 -175 -1
-93 10 -116 29 -61 7 22 18 39 24 38 6 -1 11 8 10 20 0 18 2 20 13 12 7 -6 13
-8 13 -4 0 4 8 1 18 -6 16 -13 16 -13 0 7 -24 28 -25 52 -1 33 11 -9 14 -10 9
-2 -12 20 26 51 75 62 56 13 85 6 127 -31 18 -15 45 -28 60 -29 l27 -1 -25 -8
c-18 -6 -4 -8 47 -9 l72 -1 3 -142 3 -142 -44 -27 c-92 -59 -217 -85 -326 -68
-142 23 -230 104 -270 252 -13 49 -14 50 -15 17 -2 -48 -9 -149 -13 -182 -1
-15 -6 -30 -10 -34 -12 -12 -8 -24 6 -18 9 3 13 -2 12 -16 -2 -28 -20 -46 -30
-29 -5 8 -4 10 3 5 7 -4 12 -1 12 10 0 13 -3 14 -14 5 -8 -7 -12 -21 -9 -31 4
-14 0 -20 -13 -20 -9 0 -14 3 -11 7 4 3 2 12 -4 20 -9 10 -8 13 2 13 11 0 11
2 -1 10 -12 7 -12 12 -2 22 6 6 12 17 12 22 0 6 -5 4 -10 -4 -8 -11 -10 3 -9
50 1 36 1 85 0 110 l-1 45 -24 -57 c-55 -133 -154 -198 -306 -200 -92 -1 -143
12 -206 55 -89 59 -133 157 -135 298 0 41 -3 67 -6 59 -2 -8 -7 -22 -10 -30
-4 -8 -7 -19 -7 -23 -1 -4 -8 -12 -16 -17 -8 -5 -11 -10 -6 -10 5 0 3 -6 -3
-13 -6 -8 -8 -17 -4 -21 4 -4 0 -4 -9 -1 -9 4 -19 13 -22 22 -5 11 -2 13 9 9
10 -3 13 -2 10 5 -4 6 2 13 14 16 11 3 18 9 15 14 -3 5 -10 6 -16 3 -7 -4 -8
-2 -4 4 4 7 14 12 22 12 18 0 18 20 -1 46 -8 12 -11 25 -7 29 4 3 3 6 -3 5 -5
-1 -12 -1 -15 0 -3 1 -13 3 -23 5 -14 3 -16 0 -7 -10 6 -7 8 -19 4 -28 -8 -22
17 -33 31 -13 12 15 13 15 19 0 4 -9 4 -19 1 -22 -3 -3 -5 -2 -5 3 0 4 -7 2
-15 -5 -8 -7 -22 -9 -31 -6 -15 6 -15 4 -1 -18 13 -20 14 -25 3 -29 -9 -4 -16
3 -20 18 -4 16 -11 22 -21 19 -10 -4 -15 0 -15 11 0 12 5 15 18 11 14 -5 13
-3 -3 9 -18 14 -20 14 -26 -2 -5 -14 -8 -11 -10 12 -3 20 -10 31 -24 33 -11 3
-17 1 -13 -3 4 -4 3 -16 -3 -27 -9 -16 -7 -20 10 -25 31 -8 25 -20 -9 -20 -18
0 -26 3 -19 8 10 6 10 11 -1 24 -12 14 -12 18 1 27 11 8 10 9 -4 4 -10 -3 -20
-6 -22 -6 -2 0 -2 -11 1 -25 l4 -25 -21 21 c-14 14 -28 19 -42 15 -12 -3 -26
-6 -31 -6 -6 0 -2 -6 9 -13 18 -14 14 -37 -6 -37 -6 0 -7 4 -4 10 4 6 -1 7
-11 3 -10 -4 -13 -8 -7 -10 7 -3 9 -11 6 -19 -7 -19 6 -18 29 3 19 17 19 16
14 -12 -4 -17 -3 -24 0 -17 3 6 15 11 27 11 18 -1 19 -2 4 -6 -11 -3 -16 -11
-13 -19 3 -9 -3 -16 -17 -19 -31 -8 -31 -45 0 -45 12 0 27 -8 32 -17 9 -16 10
-16 11 5 0 17 -6 22 -25 22 -14 0 -25 5 -25 11 0 5 8 9 18 7 9 -1 23 1 31 6
10 6 12 5 7 -2 -5 -8 0 -12 13 -12 12 0 21 -5 21 -11 0 -5 -4 -7 -10 -4 -5 3
-10 1 -10 -4 0 -14 17 -14 25 -1 4 6 11 8 16 5 5 -4 9 -2 9 2 0 5 -9 14 -20
21 -11 7 -20 17 -20 23 0 7 8 6 23 -4 18 -11 25 -12 34 -2 8 9 9 15 0 24 -6 6
-8 11 -3 11 4 0 14 -7 22 -15 14 -13 14 -16 -1 -21 -23 -9 3 -26 28 -18 30 9
59 -5 52 -27 -4 -10 -3 -19 2 -19 5 0 9 -8 10 -18 1 -9 2 -22 3 -27 1 -6 2
-45 1 -87 l-1 -78 -251 0 -250 0 7 333 7 332 -21 -18 c-20 -18 -20 -18 -15 1
2 11 18 23 36 28 17 5 32 15 33 22 1 7 0 8 -3 2 -7 -15 -30 -12 -37 6 -5 12
-2 15 10 10 9 -4 24 -1 32 6 10 8 13 9 9 1 -5 -8 12 -12 58 -15 40 -2 64 1 62
7 -2 6 -8 10 -13 11 -5 0 -17 4 -27 9 -15 6 -16 10 -5 16 7 5 8 9 2 9 -6 0
-11 7 -11 15 0 12 3 12 16 2 12 -10 14 -9 8 6 -4 10 -7 21 -7 23 0 3 -4 3 -9
0 -4 -3 -17 1 -27 9 -12 9 -14 14 -6 15 7 0 10 5 7 10 -3 6 4 10 17 10 18 0
20 -2 8 -10 -13 -8 -12 -10 3 -10 9 0 17 5 17 12 0 6 6 4 13 -7 11 -14 16 -15
22 -5 6 9 4 11 -5 5 -10 -6 -12 -4 -7 9 4 9 3 14 -2 11 -9 -5 -27 32 -23 48 1
4 -9 5 -23 1 -15 -4 -25 -2 -25 5 0 6 8 8 18 4 15 -6 15 -4 -2 15 -11 12 -14
22 -8 22 6 0 9 7 6 15 -4 8 -1 15 5 15 6 0 11 -11 11 -24 0 -14 5 -28 12 -32
8 -5 9 -2 5 9 -4 10 -1 17 5 17 6 0 1 11 -11 24 l-23 24 21 7 c12 3 21 11 21
16 0 5 -11 2 -24 -7 -14 -8 -29 -15 -33 -15 -4 1 -8 -3 -8 -8 0 -18 -22 -34
-29 -22 -4 6 -2 11 4 11 7 0 9 7 6 16 -3 8 -2 12 4 9 6 -3 10 3 10 15 0 12 4
18 10 15 6 -4 7 1 3 11 -5 13 -3 15 7 9 9 -5 11 -4 6 4 -6 8 -12 9 -20 2 -9
-7 -17 -7 -26 2 -10 10 -11 9 -5 -3 7 -12 6 -13 -6 -3 -9 8 -76 12 -207 13
l-192 1 0 -741z m2985 720 c3 -5 -1 -10 -10 -10 -9 0 -13 5 -10 10 3 6 8 10
10 10 2 0 7 -4 10 -10z m-2565 -14 c0 -3 -4 -8 -10 -11 -5 -3 -10 -1 -10 4 0
6 5 11 10 11 6 0 10 -2 10 -4z m-26 -46 c-6 -5 -24 21 -24 34 0 6 6 1 14 -10
8 -10 12 -21 10 -24z m-51 15 c-3 -9 -8 -14 -10 -11 -3 3 -2 9 2 15 9 16 15
13 8 -4z m18 -37 c-3 -21 -6 -26 -9 -15 -3 17 3 47 11 47 2 0 1 -15 -2 -32z
m42 -52 c8 5 8 3 0 -7 -15 -15 -17 -33 -4 -25 5 4 8 -2 7 -11 -2 -12 -10 -17
-24 -15 -11 2 -23 -2 -27 -8 -7 -11 -25 -4 -25 11 0 5 9 9 21 9 16 0 19 4 14
20 -4 11 -2 20 4 20 6 0 12 15 13 33 l1 32 4 -33 c3 -21 8 -30 16 -26z m24 19
c9 -24 -1 -27 -15 -5 -8 13 -8 20 -2 20 6 0 13 -7 17 -15z m2516 -7 c-2 -5
-15 -8 -29 -8 -14 0 -23 4 -20 9 3 5 17 8 30 7 13 0 22 -4 19 -8z m-2470 -45
c-7 -2 -19 -2 -25 0 -7 3 -2 5 12 5 14 0 19 -2 13 -5z m-153 -23 c0 -5 -4 -10
-10 -10 -5 0 -10 5 -10 10 0 6 5 10 10 10 6 0 10 -4 10 -10z m170 1 c0 -4 -11
-6 -25 -3 -14 2 -25 6 -25 8 0 2 11 4 25 4 14 0 25 -4 25 -9z m2586 -12 c0
-10 -5 -20 -11 -22 -5 -3 -10 5 -10 18 0 12 5 22 10 22 6 0 11 -8 11 -18z
m-79 -35 c-3 -3 -12 -4 -19 -1 -8 3 -5 6 6 6 11 1 17 -2 13 -5z m80 -1 c-4 -3
1 -16 10 -27 18 -21 18 -21 -3 -3 -11 9 -25 14 -29 10 -5 -5 -3 0 4 10 7 9 16
17 19 17 3 0 2 -3 -1 -7z m-2630 -28 c0 -5 -13 -10 -28 -10 -19 -1 -25 3 -19
10 11 14 47 14 47 0z m2519 -66 c0 -13 -3 -15 -13 -7 -7 6 -13 14 -13 18 0 3
6 7 13 7 7 0 13 -8 13 -18z m-2493 4 c-7 -2 -19 -2 -25 0 -7 3 -2 5 12 5 14 0
19 -2 13 -5z m-169 -11 c3 -5 -1 -9 -9 -9 -8 0 -12 4 -9 9 3 4 7 8 9 8 2 0 6
-4 9 -8z m2800 -10 c3 -5 -1 -9 -9 -9 -8 0 -12 4 -9 9 3 4 7 8 9 8 2 0 6 -4 9
-8z m-224 -12 c0 -5 -2 -10 -4 -10 -3 0 -8 5 -11 10 -3 6 -1 10 4 10 6 0 11
-4 11 -10z m-2037 -276 c-8 -23 -21 -16 -19 10 1 18 4 22 13 14 6 -5 9 -16 6
-24z m-121 -6 c-7 -7 -12 -8 -12 -2 0 14 12 26 19 19 2 -3 -1 -11 -7 -17z m8
-70 c0 -6 -6 -5 -15 2 -8 7 -15 14 -15 16 0 2 7 1 15 -2 8 -4 15 -11 15 -16z
m84 -44 c13 -18 12 -20 -7 -21 -12 0 -31 -4 -42 -8 l-20 -8 20 17 c14 12 16
19 8 22 -20 9 -15 21 7 19 11 -1 27 -10 34 -21z m1591 -104 c-3 -5 -14 -10
-23 -10 -15 0 -15 2 -2 10 20 13 33 13 25 0z m9 -43 c14 -23 5 -28 -30 -17
l-29 10 30 -4 c26 -4 27 -3 12 9 -9 7 -17 15 -17 19 0 12 23 1 34 -17z m-7
-43 c-3 -3 -12 -4 -19 -1 -8 3 -5 6 6 6 11 1 17 -2 13 -5z m30 -43 c0 -11 -5
-17 -9 -15 -4 3 -8 -1 -9 -8 0 -10 -2 -10 -6 0 -2 6 -9 10 -14 6 -5 -3 -9 2
-9 12 0 13 3 14 15 4 12 -10 16 -9 21 4 8 22 13 20 11 -3z m-823 -129 c-6 -4
-13 -14 -16 -23 -5 -12 0 -15 20 -13 15 2 19 1 10 -2 -10 -3 -15 -11 -11 -20
3 -8 -1 -14 -11 -14 -9 0 -16 -4 -16 -9 0 -5 15 -6 34 -1 32 7 34 6 23 -11 -7
-11 -20 -22 -30 -25 -22 -7 -17 -30 6 -26 23 4 30 -15 7 -21 -11 -3 -23 -1
-26 4 -10 16 -23 9 -19 -10 3 -15 -1 -18 -13 -15 -14 5 -13 2 2 -10 21 -17 56
-22 56 -7 0 5 -10 7 -22 3 -14 -3 -19 -2 -14 7 4 6 12 9 17 6 5 -4 9 -1 9 4 0
6 5 11 11 11 5 0 8 -4 5 -8 -3 -5 4 -15 15 -22 10 -8 19 -18 19 -23 0 -5 -6
-4 -14 2 -11 9 -20 9 -35 2 -14 -8 -27 -8 -44 0 -25 11 -28 23 -13 47 4 7 3
18 -3 25 -13 16 -1 35 21 32 9 -2 25 3 34 9 15 11 13 12 -13 9 -18 -3 -34 0
-38 8 -5 8 -4 10 3 5 13 -8 12 20 -1 41 -4 6 -2 15 4 18 5 4 8 13 5 21 -4 10
3 14 22 14 15 0 22 -4 16 -8z m-25 -241 c12 -11 31 -17 44 -15 13 2 16 1 7 -2
-8 -4 -17 -10 -20 -14 -9 -13 -48 -21 -54 -12 -3 6 0 9 7 8 6 0 13 4 14 9 2 6
-5 10 -15 11 -32 2 -34 4 -22 19 15 18 13 19 39 -4z"/>
<path d="M1566 198 c3 -5 10 -6 15 -3 13 9 11 12 -6 12 -8 0 -12 -4 -9 -9z"/>
<path d="M475 1471 c-3 -5 -2 -12 3 -15 5 -3 9 1 9 9 0 17 -3 19 -12 6z"/>
<path d="M540 1470 c0 -5 5 -10 11 -10 5 0 7 5 4 10 -3 6 -8 10 -11 10 -2 0
-4 -4 -4 -10z"/>
<path d="M2656 1472 c-3 -5 1 -15 8 -21 11 -10 14 -9 12 3 -3 21 -13 29 -20
18z"/>
<path d="M2871 1464 c0 -11 3 -14 6 -6 3 7 2 16 -1 19 -3 4 -6 -2 -5 -13z"/>
<path d="M2891 1464 c0 -11 3 -14 6 -6 3 7 2 16 -1 19 -3 4 -6 -2 -5 -13z"/>
<path d="M2912 1450 c0 -19 2 -27 5 -17 2 9 2 25 0 35 -3 9 -5 1 -5 -18z"/>
<path d="M2767 1463 c-4 -3 -7 -11 -7 -17 0 -6 5 -5 12 2 6 6 9 14 7 17 -3 3
-9 2 -12 -2z"/>
<path d="M530 1429 c-7 -11 -9 -32 -5 -46 3 -13 2 -22 -3 -19 -5 3 -9 -8 -9
-24 0 -16 4 -27 9 -24 12 8 10 -10 -4 -26 -11 -12 -10 -12 2 -3 11 7 22 8 40
0 14 -6 32 -11 40 -11 8 -1 20 -4 25 -8 6 -4 11 2 11 12 0 10 -5 16 -10 13 -5
-4 -7 3 -4 15 4 12 2 20 -3 16 -5 -3 -9 -14 -9 -24 0 -12 -6 -17 -17 -15 -10
2 -20 4 -22 4 -3 1 4 7 14 15 16 12 17 17 7 37 -12 24 -12 23 -7 -4 4 -19 2
-26 -5 -22 -6 4 -18 1 -26 -6 -14 -11 -16 -10 -14 6 1 11 1 22 0 25 -5 14 -7
56 -2 65 6 10 11 45 6 45 -2 0 -8 -9 -14 -21z"/>
<path d="M591 1416 c-1 -38 -1 -39 19 -21 11 10 17 22 13 28 -4 6 -9 3 -14 -9
-6 -16 -7 -14 -11 11 -4 27 -5 26 -7 -9z"/>
<path d="M733 1435 c0 -8 4 -12 9 -9 5 3 6 10 3 15 -9 13 -12 11 -12 -6z"/>
<path d="M2766 1414 c-11 -8 -16 -14 -10 -14 13 0 39 18 34 24 -3 2 -14 -2
-24 -10z"/>
<path d="M770 1370 c0 -5 5 -10 11 -10 5 0 7 5 4 10 -3 6 -8 10 -11 10 -2 0
-4 -4 -4 -10z"/>
<path d="M1390 1316 c0 -2 8 -10 18 -17 15 -13 16 -12 3 4 -13 16 -21 21 -21
13z"/>
<path d="M2286 1268 c3 -5 10 -6 15 -3 13 9 11 12 -6 12 -8 0 -12 -4 -9 -9z"/>
<path d="M2955 1271 c-3 -5 -1 -12 5 -16 5 -3 10 1 10 9 0 18 -6 21 -15 7z"/>
<path d="M562 1256 c7 -7 19 -11 27 -8 11 4 10 7 -5 13 -29 12 -36 10 -22 -5z"/>
<path d="M501 1191 c1 -20 3 -21 6 -7 4 15 7 16 14 5 6 -10 8 -8 7 7 -3 31
-28 26 -27 -5z"/>
<path d="M644 1195 c3 -8 1 -15 -4 -15 -5 0 -14 -8 -19 -18 -8 -15 -6 -18 9
-17 11 1 23 5 27 10 5 4 2 5 -4 1 -18 -10 -16 2 2 21 16 15 12 33 -7 33 -5 0
-8 -7 -4 -15z"/>
<path d="M706 1153 c-6 -14 -5 -15 5 -6 7 7 10 15 7 18 -3 3 -9 -2 -12 -12z"/>
<path d="M728 1141 c-16 -18 -15 -20 1 -18 9 0 17 9 17 19 0 10 -1 18 -1 18 0
0 -8 -9 -17 -19z"/>
<path d="M569 1143 c0 -5 -2 -18 -5 -31 -3 -19 -2 -21 10 -10 8 7 10 14 6 16
-5 2 -6 10 -3 18 3 8 2 14 -1 14 -3 0 -6 -3 -7 -7z"/>
<path d="M2840 1130 c0 -5 4 -10 9 -10 6 0 13 5 16 10 3 6 -1 10 -9 10 -9 0
-16 -4 -16 -10z"/>
<path d="M620 1110 c0 -5 5 -10 10 -10 6 0 10 5 10 10 0 6 -4 10 -10 10 -5 0
-10 -4 -10 -10z"/>
<path d="M550 1070 c8 -5 23 -7 33 -4 11 3 17 0 17 -9 0 -8 7 -20 15 -27 10
-9 15 -9 15 -1 0 6 -4 11 -10 11 -5 0 -10 5 -10 11 0 6 10 8 23 5 14 -4 11 -1
-8 9 -35 16 -100 21 -75 5z"/>
<path d="M557 1035 c-4 -8 -2 -17 3 -20 5 -3 7 -12 4 -19 -3 -7 2 -16 10 -19
22 -9 21 22 -1 39 -10 7 -13 14 -6 14 15 0 44 -40 37 -52 -3 -4 2 -5 11 -1 13
5 14 7 3 14 -7 5 -9 9 -3 9 5 0 -2 11 -17 25 -32 29 -34 30 -41 10z"/>
<path d="M1167 976 c-21 -8 -47 -22 -57 -31 -32 -29 -60 -98 -60 -148 0 -51
15 -62 30 -23 10 27 43 49 55 38 5 -4 5 -1 1 6 -4 7 -1 12 8 12 9 0 16 6 16
13 0 8 16 13 45 15 31 1 44 -2 39 -9 -3 -6 -15 -9 -25 -6 -28 8 -31 -7 -4 -20
15 -6 23 -7 22 -1 -1 5 8 14 21 19 20 8 23 6 20 -14 -2 -12 -10 -25 -18 -29
-11 -6 -10 -7 5 -5 11 2 19 9 18 15 -3 13 7 15 32 5 15 -5 14 -8 -6 -20 -23
-13 -23 -14 -2 -8 29 8 51 -4 32 -16 -11 -7 -11 -9 -1 -9 7 0 10 -5 6 -12 -4
-6 -3 -8 3 -5 14 9 27 -9 44 -55 16 -48 26 -38 35 33 22 188 -102 310 -259
255z"/>
<path d="M2642 969 c-29 -15 -51 -36 -70 -68 -24 -41 -27 -55 -27 -141 0 -79
4 -102 23 -137 25 -47 37 -53 47 -23 4 12 16 20 28 21 12 0 16 3 10 6 -7 2
-13 9 -13 15 0 6 7 8 15 4 8 -3 15 -1 15 5 0 7 10 9 24 5 16 -4 26 -1 30 9 5
14 -11 20 -37 16 -5 -1 -6 3 -2 9 3 6 11 8 16 5 5 -4 21 3 35 14 34 27 53 27
29 1 -16 -18 -16 -20 -2 -20 18 0 40 35 34 53 -3 11 74 67 93 67 5 0 11 -8 13
-17 3 -10 5 5 6 33 3 125 -144 204 -267 143z m100 -161 c15 15 28 16 28 2 0
-5 -6 -10 -14 -10 -8 0 -17 -8 -20 -17 -6 -15 -8 -15 -17 -3 -9 13 -9 13 -7 0
2 -9 -1 -17 -7 -19 -5 -1 -16 -7 -23 -13 -7 -6 -3 8 10 31 15 28 24 37 29 29
7 -10 11 -10 21 0z m98 -8 c0 -5 -4 -10 -10 -10 -5 0 -10 5 -10 10 0 6 5 10
10 10 6 0 10 -4 10 -10z m-37 -14 c4 -10 1 -13 -9 -9 -15 6 -19 23 -5 23 5 0
11 -7 14 -14z m-38 -26 c-3 -5 -14 -10 -23 -10 -15 0 -15 2 -2 10 20 13 33 13
25 0z"/>
<path d="M563 954 c0 -8 6 -14 14 -14 7 0 13 4 13 9 0 5 -6 11 -13 14 -8 3
-14 -1 -14 -9z"/>
<path d="M666 908 c-11 -34 -2 -45 31 -44 20 1 33 6 33 14 0 7 5 10 10 7 6 -4
8 -10 6 -14 -6 -10 25 -8 42 3 7 4 10 11 7 16 -4 7 -21 7 -95 -2 -19 -2 -25 1
-24 15 2 20 -5 23 -10 5z"/>
<path d="M532 828 c16 -10 45 -10 51 0 3 4 -10 7 -29 8 -21 0 -30 -3 -22 -8z"/>
<path d="M2000 641 c0 -29 19 -73 28 -67 5 3 18 -4 30 -14 25 -24 34 -25 72
-5 26 14 30 21 30 60 l0 45 -80 0 c-72 0 -80 -2 -80 -19z"/>
</g>
</svg>
