<?xml version="1.0" standalone="no"?>
<!DOCTYPE svg PUBLIC "-//W3C//DTD SVG 20010904//EN"
 "http://www.w3.org/TR/2001/REC-SVG-20010904/DTD/svg10.dtd">
<svg version="1.0" xmlns="http://www.w3.org/2000/svg"
 width="512.000000pt" height="512.000000pt" viewBox="0 0 512.000000 512.000000"
 preserveAspectRatio="xMidYMid meet">

<g transform="translate(0.000000,512.000000) scale(0.100000,-0.100000)"
fill="#000000" stroke="none">
<path d="M2996 5109 c-437 -64 -797 -390 -905 -818 -11 -47 -21 -94 -21 -105
l0 -21 -802 3 c-545 2 -815 0 -839 -7 -51 -15 -88 -48 -110 -95 -18 -39 -19
-83 -19 -836 0 -750 1 -797 19 -835 22 -48 44 -69 94 -90 31 -13 121 -15 656
-15 l620 0 3 573 c3 556 4 573 24 607 11 19 35 45 54 57 33 23 36 23 381 23
l349 0 0 283 c0 216 4 297 15 346 32 136 118 268 234 361 348 279 875 117
1018 -314 26 -79 27 -88 31 -378 l4 -298 219 0 219 0 0 250 c0 138 -5 294 -11
347 -47 421 -336 780 -734 912 -166 54 -345 72 -499 50z m-1633 -1249 c145
-45 250 -167 277 -324 39 -218 -110 -432 -332 -478 l-58 -12 0 -56 c0 -37 -6
-65 -20 -87 -37 -61 -121 -52 -157 18 -16 30 -17 141 -2 194 15 52 68 102 117
110 151 23 204 53 246 137 50 99 28 210 -54 280 -144 124 -360 15 -360 -180 0
-90 -96 -137 -157 -76 -24 24 -25 30 -21 113 3 70 10 99 31 144 92 187 295
277 490 217z m-169 -1094 c89 -37 61 -186 -36 -186 -82 0 -124 101 -69 164 15
17 45 34 64 35 4 1 22 -5 41 -13z"/>
<path d="M3083 3060 c-93 -19 -180 -87 -224 -176 -18 -36 -25 -70 -27 -131 -4
-75 -1 -89 26 -146 21 -45 45 -77 85 -112 l56 -48 3 -224 3 -225 33 -29 c30
-27 39 -29 107 -29 40 0 77 5 80 10 3 6 1 10 -5 10 -5 0 -19 15 -30 33 -18 29
-20 50 -20 241 l0 210 -59 55 c-80 77 -103 126 -109 227 -4 73 -1 88 22 140
33 73 92 134 158 165 51 24 51 24 22 30 -39 9 -71 8 -121 -1z"/>
<path d="M615 1676 c-37 -16 -70 -52 -84 -89 -7 -17 -11 -120 -11 -258 l0
-230 32 -47 c143 -211 483 -552 549 -552 19 0 16 4 -18 21 -70 34 -83 75 -83
256 l0 151 -30 -11 c-35 -13 -58 -3 -77 33 -18 37 -1 62 71 104 l67 39 -33 20
c-114 69 -127 84 -104 128 18 35 41 45 76 32 l30 -11 0 148 c0 82 5 161 11
177 14 37 47 73 84 89 26 11 -2 13 -210 13 -178 0 -248 -3 -270 -13z"/>
<path d="M1031 1381 c-16 -16 -21 -34 -21 -75 0 -51 2 -55 36 -75 19 -12 37
-21 39 -21 2 0 5 33 8 73 2 39 6 81 8 92 6 29 -43 33 -70 6z"/>
<path d="M1721 1381 c-16 -16 -21 -34 -21 -75 0 -51 2 -55 36 -75 19 -12 37
-21 39 -21 2 0 5 33 8 73 2 39 6 81 8 92 6 29 -43 33 -70 6z"/>
<path d="M2413 1385 c-19 -14 -23 -25 -23 -75 0 -56 2 -59 34 -79 18 -12 36
-21 39 -21 3 0 7 35 9 78 2 42 6 84 8 92 7 21 -39 25 -67 5z"/>
<path d="M3103 1385 c-19 -14 -23 -25 -23 -75 0 -56 2 -59 34 -79 18 -12 36
-21 39 -21 3 0 7 35 9 78 2 42 6 84 8 92 7 21 -39 25 -67 5z"/>
<path d="M1242 1264 c-19 -13 -32 -54 -16 -54 16 0 93 53 88 61 -8 14 -47 11
-72 -7z"/>
<path d="M1510 1260 c-42 -42 -21 -81 73 -135 26 -15 47 -29 47 -31 0 -2 -21
-15 -47 -30 -67 -38 -93 -64 -93 -91 0 -30 34 -63 64 -63 32 0 39 12 25 43
-16 36 2 61 76 104 l64 37 -65 39 c-72 43 -93 72 -75 106 7 12 9 26 6 31 -10
17 -54 11 -75 -10z"/>
<path d="M1933 1268 c-20 -10 -34 -58 -17 -58 16 0 93 53 88 61 -7 12 -43 10
-71 -3z"/>
<path d="M2200 1260 c-23 -23 -26 -59 -7 -82 6 -8 38 -30 70 -47 31 -18 57
-34 57 -36 0 -2 -25 -18 -55 -35 -30 -17 -62 -38 -70 -46 -35 -35 -2 -104 49
-104 31 0 40 14 24 39 -20 32 4 65 75 108 l65 38 -61 35 c-73 43 -99 79 -79
111 12 18 12 23 0 30 -22 14 -47 10 -68 -11z"/>
<path d="M2623 1268 c-14 -7 -23 -20 -23 -35 0 -12 2 -23 4 -23 2 0 25 12 51
26 34 19 43 29 33 35 -17 11 -38 10 -65 -3z"/>
<path d="M2892 1264 c-18 -12 -22 -24 -20 -52 3 -33 9 -40 66 -73 35 -20 65
-39 68 -42 3 -2 -24 -21 -59 -41 -66 -36 -77 -50 -77 -92 0 -31 41 -58 75 -50
21 5 24 10 15 26 -25 46 -6 73 85 125 43 25 47 30 31 39 -120 73 -136 91 -119
135 9 24 8 31 -4 35 -23 9 -37 7 -61 -10z"/>
<path d="M3313 1268 c-14 -7 -23 -20 -23 -35 0 -29 1 -29 56 6 36 22 42 30 29
35 -22 8 -35 7 -62 -6z"/>
<path d="M1048 959 c-37 -19 -38 -21 -38 -74 0 -42 5 -60 21 -76 27 -27 76
-23 70 6 -2 11 -6 52 -10 92 l-6 71 -37 -19z"/>
<path d="M1220 957 c0 -25 33 -47 70 -47 36 0 30 18 -14 44 -54 32 -56 32 -56
3z"/>
<path d="M1733 958 c-31 -18 -33 -24 -33 -74 0 -41 5 -59 21 -75 27 -27 76
-23 70 6 -2 11 -6 53 -8 93 -3 39 -8 72 -11 71 -4 0 -22 -10 -39 -21z"/>
<path d="M1910 957 c0 -34 78 -65 94 -38 5 7 -75 61 -90 61 -2 0 -4 -11 -4
-23z"/>
<path d="M2423 958 c-31 -19 -33 -23 -33 -79 0 -51 3 -61 24 -75 30 -19 73
-15 66 6 -2 8 -6 50 -8 93 -2 42 -7 77 -10 76 -4 0 -22 -10 -39 -21z"/>
<path d="M2600 957 c0 -34 78 -65 94 -38 5 7 -75 61 -90 61 -2 0 -4 -11 -4
-23z"/>
<path d="M3113 959 c-31 -20 -33 -25 -33 -78 0 -44 5 -62 19 -75 24 -22 78
-18 71 4 -2 8 -6 50 -8 93 -2 42 -7 77 -10 77 -4 0 -22 -10 -39 -21z"/>
<path d="M3290 957 c0 -31 49 -55 81 -41 19 9 16 12 -30 37 l-51 28 0 -24z"/>
</g>
</svg>
