<?xml version="1.0" standalone="no"?>
<!DOCTYPE svg PUBLIC "-//W3C//DTD SVG 20010904//EN"
 "http://www.w3.org/TR/2001/REC-SVG-20010904/DTD/svg10.dtd">
<svg version="1.0" xmlns="http://www.w3.org/2000/svg"
 width="1272.000000pt" height="1280.000000pt" viewBox="0 0 1272.000000 1280.000000"
 preserveAspectRatio="xMidYMid meet">

<g transform="translate(0.000000,1280.000000) scale(0.100000,-0.100000)"
fill="#000000" stroke="none">
<path d="M6145 12794 c-276 -17 -412 -28 -545 -45 -1477 -185 -2859 -882
-3862 -1945 -912 -968 -1516 -2252 -1683 -3579 -39 -308 -49 -481 -49 -825 0
-344 10 -517 49 -825 152 -1205 665 -2380 1446 -3312 1089 -1297 2687 -2109
4419 -2244 199 -16 681 -16 880 0 1732 135 3330 947 4419 2244 781 932 1294
2107 1446 3312 39 308 49 481 49 825 0 449 -31 796 -108 1200 -292 1534 -1122
2904 -2330 3844 -988 769 -2219 1244 -3461 1336 -152 11 -574 20 -670 14z
m490 -504 c827 -45 1583 -243 2330 -610 580 -285 1060 -622 1504 -1055 1031
-1007 1657 -2351 1771 -3810 14 -180 14 -649 0 -830 -89 -1141 -500 -2234
-1181 -3141 -237 -316 -605 -705 -894 -945 -593 -492 -1231 -848 -1955 -1089
-1225 -408 -2476 -408 -3700 0 -726 241 -1370 601 -1965 1096 -167 139 -540
512 -679 679 -320 384 -558 749 -776 1190 -140 282 -223 482 -320 775 -156
469 -250 929 -291 1425 -16 190 -16 666 0 850 54 631 179 1167 408 1750 87
221 275 609 393 810 579 983 1392 1749 2400 2259 113 57 270 132 350 166 824
356 1745 526 2605 480z"/>
<path d="M9260 11316 c0 -3 9 -10 20 -16 11 -6 20 -8 20 -6 0 3 -9 10 -20 16
-11 6 -20 8 -20 6z"/>
<path d="M9325 11275 c11 -9 29 -21 40 -26 l20 -10 -20 16 c-11 9 -29 21 -40
26 l-20 10 20 -16z"/>
<path d="M9395 11233 c6 -6 79 -56 163 -112 83 -56 152 -105 152 -107 0 -3
-13 3 -29 12 -29 17 -31 17 -70 -9 -22 -15 -43 -27 -46 -27 -3 0 -11 -5 -18
-10 -7 -6 -52 -36 -102 -67 -49 -31 -124 -77 -165 -103 -41 -26 -115 -72 -165
-103 -49 -31 -95 -61 -102 -67 -7 -5 -14 -10 -17 -10 -4 0 -68 -39 -146 -90
-78 -51 -142 -90 -146 -90 -3 0 -10 -5 -17 -10 -7 -6 -51 -35 -99 -65 -49 -30
-127 -80 -175 -110 -49 -30 -93 -59 -100 -65 -7 -5 -14 -10 -17 -10 -6 0 -126
-75 -143 -90 -7 -5 -15 -10 -18 -10 -3 0 -33 -18 -65 -40 -32 -22 -62 -40 -65
-40 -3 0 -11 -5 -18 -10 -17 -15 -137 -90 -143 -90 -3 0 -10 -5 -17 -10 -7 -6
-50 -34 -97 -64 -47 -29 -127 -79 -177 -111 l-93 -59 -2 -70 c-2 -39 -5 75 -8
254 -4 268 -6 174 -13 -530 -5 -470 -7 -1123 -5 -1450 l3 -595 1468 -3 1467
-2 -2 -1003 -3 -1002 -1467 -3 -1468 -2 0 -1450 0 -1450 -975 0 -975 0 0 1450
0 1450 -1465 0 -1465 0 -2 1008 c-2 750 -4 892 -8 557 -3 -247 -6 -406 -8
-353 l-2 97 -37 -22 c-21 -12 -39 -25 -41 -29 -2 -4 -8 -8 -12 -8 -9 0 -124
-70 -147 -90 -7 -5 -15 -10 -18 -10 -3 0 -33 -18 -65 -40 -32 -22 -62 -40 -65
-40 -3 0 -11 -5 -18 -10 -17 -15 -137 -90 -143 -90 -3 0 -10 -5 -17 -10 -7 -6
-50 -34 -97 -64 -226 -141 -266 -166 -277 -176 -7 -5 -14 -10 -17 -10 -6 0
-126 -75 -143 -90 -7 -5 -15 -10 -18 -10 -3 0 -33 -18 -65 -40 -32 -22 -62
-40 -65 -40 -3 0 -11 -5 -18 -10 -7 -6 -52 -36 -102 -67 -49 -31 -124 -77
-165 -103 -41 -26 -114 -71 -163 -101 l-87 -54 5 -45 c3 -38 3 -40 -5 -15 -10
35 -59 348 -61 391 -1 19 -3 22 -6 10 -7 -25 32 -298 68 -481 193 -974 622
-1868 1261 -2628 145 -172 467 -493 638 -637 620 -521 1359 -917 2130 -1140
1235 -357 2483 -294 3700 187 561 221 1136 568 1609 971 1082 920 1793 2281
1956 3744 105 942 -51 1947 -442 2853 -393 910 -1006 1696 -1776 2277 -161
122 -475 333 -432 291z"/>
<path d="M7233 10183 c37 -2 97 -2 135 0 37 2 6 3 -68 3 -74 0 -105 -1 -67 -3z"/>
<path d="M5471 8715 c-6 -246 -12 -306 -35 -319 -11 -6 -25 -14 -30 -19 -6 -4
-51 -33 -101 -64 -49 -31 -124 -77 -165 -103 -41 -26 -115 -72 -165 -103 -49
-31 -95 -61 -102 -67 -7 -5 -14 -10 -17 -10 -4 0 -68 -39 -146 -90 -78 -51
-142 -90 -146 -90 -3 0 -10 -5 -17 -10 -7 -6 -52 -36 -102 -67 -49 -31 -124
-77 -165 -103 -41 -26 -115 -72 -165 -103 -49 -31 -95 -61 -102 -67 -7 -5 -15
-10 -18 -10 -3 0 -33 -18 -65 -40 -32 -22 -63 -40 -69 -40 -5 0 -11 -4 -13 -8
-3 -7 -54 -40 -132 -84 l-31 -18 105 -2 c58 -2 -131 -5 -420 -8 -444 -4 -323
-6 789 -13 722 -5 1315 -6 1317 -4 2 2 3 363 1 803 -1 439 -4 727 -6 639z"/>
<path d="M653 6135 c0 -22 2 -30 4 -17 2 12 2 30 0 40 -3 9 -5 -1 -4 -23z"/>
<path d="M663 5990 c0 -25 2 -35 4 -22 2 12 2 32 0 45 -2 12 -4 2 -4 -23z"/>
<path d="M673 5865 c0 -22 2 -30 4 -17 2 12 2 30 0 40 -3 9 -5 -1 -4 -23z"/>
</g>
</svg>
