<?xml version="1.0" standalone="no"?>
<!DOCTYPE svg PUBLIC "-//W3C//DTD SVG 20010904//EN"
 "http://www.w3.org/TR/2001/REC-SVG-20010904/DTD/svg10.dtd">
<svg version="1.0" xmlns="http://www.w3.org/2000/svg"
 width="472.000000pt" height="472.000000pt" viewBox="0 0 472.000000 472.000000"
 preserveAspectRatio="xMidYMid meet">

<g transform="translate(0.000000,472.000000) scale(0.100000,-0.100000)"
fill="#000000" stroke="none">
<path d="M2270 4649 c-213 -45 -242 -55 -427 -147 -146 -73 -219 -115 -245
-139 -79 -74 -230 -247 -199 -228 8 4 -11 -29 -42 -73 -31 -45 -54 -82 -51
-82 4 0 1 -6 -6 -14 -6 -8 -17 -13 -23 -10 -16 6 -71 -82 -61 -97 4 -8 3 -9
-4 -5 -7 4 -12 5 -12 2 0 -3 -16 -57 -35 -120 -19 -64 -34 -119 -34 -123 1 -5
0 -10 -1 -13 -9 -24 -12 -55 -11 -116 2 -80 -18 -169 -48 -218 -18 -29 -19
-37 -8 -66 9 -26 9 -34 0 -37 -7 -3 -13 -11 -13 -18 0 -8 -7 -18 -16 -23 -11
-6 -15 -18 -12 -35 4 -19 0 -27 -15 -31 -14 -3 -18 -11 -14 -25 3 -14 0 -21
-10 -21 -12 0 -12 -3 2 -16 12 -12 13 -19 5 -24 -7 -4 -10 -16 -8 -26 2 -11
-3 -24 -12 -31 -13 -10 -12 -12 7 -8 30 5 54 -33 29 -47 -9 -5 -14 -13 -11
-19 4 -5 -1 -9 -9 -9 -8 0 -17 -4 -20 -9 -4 -5 4 -7 16 -3 14 3 19 2 14 -6 -4
-7 -2 -12 4 -12 6 0 8 -5 4 -11 -3 -6 -14 -9 -23 -6 -11 3 -17 -2 -18 -14 -1
-11 5 -19 13 -19 8 0 12 -4 9 -10 -3 -5 -1 -10 4 -10 19 0 12 -20 -6 -20 -14
-1 -12 -4 7 -15 14 -8 21 -15 15 -16 -5 -1 10 -5 34 -8 l43 -6 -19 -24 c-13
-16 -38 -28 -79 -36 -52 -11 -56 -13 -32 -20 15 -4 42 -2 59 4 42 15 54 14 42
-1 -5 -7 -10 -23 -11 -36 -1 -19 2 -21 13 -12 9 8 15 8 20 0 3 -6 11 -8 16 -5
5 4 9 -5 9 -19 0 -37 10 -56 31 -56 10 0 23 -9 30 -21 18 -34 49 -156 50 -196
0 -31 2 -34 9 -18 7 17 9 16 10 -10 3 -64 19 -102 21 -49 l0 29 11 -25 c6 -14
15 -35 20 -47 17 -35 3 -52 -15 -18 -9 17 -16 26 -17 20 0 -5 8 -23 18 -40 10
-16 23 -48 29 -70 25 -87 33 -123 33 -144 0 -11 4 -21 8 -21 5 0 17 -18 27
-40 10 -22 22 -40 27 -40 5 0 14 -11 20 -25 6 -14 15 -25 20 -25 5 0 6 5 3 10
-11 18 11 10 30 -10 10 -11 25 -20 34 -20 10 0 8 -5 -8 -13 -44 -23 -74 -102
-51 -137 8 -13 10 -13 10 2 0 11 5 15 14 12 8 -3 12 -12 9 -20 -3 -8 1 -14 11
-14 20 0 37 -32 26 -49 -14 -24 -32 -3 -19 22 9 18 9 20 -1 10 -11 -10 -16 -9
-26 5 -10 14 -15 15 -26 4 -11 -11 -10 -12 6 -6 16 6 18 4 13 -10 -4 -10 -3
-15 3 -11 16 10 12 -5 -11 -41 -12 -20 -16 -34 -9 -34 6 0 16 14 22 31 8 22
13 27 19 18 5 -8 2 -23 -7 -36 -8 -13 -11 -23 -6 -23 5 0 14 10 19 22 10 20
12 21 18 6 4 -10 -4 -35 -21 -63 -22 -38 -29 -44 -36 -31 -5 9 -6 21 -3 26 3
6 1 10 -5 10 -6 0 -15 -12 -20 -26 -13 -32 -13 -44 0 -24 7 11 12 12 20 4 9
-9 7 -20 -5 -44 -9 -17 -14 -37 -12 -43 2 -7 9 5 16 26 l13 38 23 -25 c13 -14
25 -31 28 -38 4 -8 6 -7 6 5 1 9 5 17 9 17 5 0 17 16 28 35 10 19 21 35 25 35
4 0 9 9 12 20 9 36 35 34 81 -6 48 -43 67 -70 41 -60 -10 3 -13 2 -10 -5 4 -5
14 -7 24 -4 11 3 26 -5 41 -21 14 -14 39 -34 57 -45 18 -12 30 -26 27 -31 -4
-6 -2 -8 4 -4 6 3 13 2 17 -4 7 -12 177 -148 218 -174 24 -16 27 -16 21 -2 -4
11 -1 16 11 16 9 0 13 4 10 10 -3 5 1 10 9 10 9 0 16 4 16 8 0 5 19 15 43 22
23 8 47 17 52 20 18 13 70 23 105 21 46 -3 170 -26 193 -36 12 -5 17 -3 17 8
0 10 9 13 30 11 75 -9 186 -5 220 7 3 1 8 1 13 0 4 0 7 3 7 8 0 5 26 12 58 16
70 8 104 25 52 25 -26 0 -31 3 -20 10 8 5 27 10 41 10 15 0 38 9 52 20 14 11
30 20 36 20 16 0 102 87 139 142 29 42 30 47 12 45 -10 -1 -17 -3 -15 -5 5 -6
-13 -42 -32 -62 -7 -8 -23 -28 -34 -43 -12 -15 -23 -26 -26 -23 -3 3 -16 -7
-29 -21 -13 -14 -24 -22 -24 -18 0 4 -12 0 -26 -10 -18 -11 -24 -13 -19 -4 6
11 5 12 -6 2 -19 -19 -28 -16 -22 7 4 16 2 19 -11 14 -9 -3 -16 -12 -16 -19 0
-8 -11 -12 -29 -11 -17 1 -28 -1 -26 -5 8 -11 -41 -28 -56 -18 -8 5 -31 14
-51 19 -28 8 -36 14 -31 27 5 12 2 15 -10 10 -11 -4 -14 -2 -10 9 3 7 0 14 -6
14 -6 0 -9 16 -7 43 2 23 0 47 -6 54 -12 15 0 56 14 47 7 -5 8 -2 4 5 -5 7 -1
18 9 25 15 11 15 13 1 25 -12 10 -13 17 -5 27 12 14 4 34 -13 34 -5 0 -8 -7
-4 -15 7 -20 -9 -19 -45 2 -21 13 -32 14 -37 7 -4 -6 -17 -14 -29 -18 -17 -6
-23 -3 -23 9 0 9 -4 13 -10 10 -6 -4 -10 7 -10 27 -1 29 -2 31 -12 14 -8 -14
-8 -24 1 -37 21 -35 13 -50 -14 -23 -27 27 -46 104 -26 104 6 0 11 7 11 16 0
10 5 14 15 10 10 -4 19 3 25 18 7 21 14 23 44 19 26 -3 36 -1 37 9 1 30 8 71
13 75 2 3 22 6 43 7 21 1 44 5 50 9 19 12 43 15 120 18 40 1 73 8 81 16 18 17
61 17 68 -1 5 -12 14 -12 62 1 31 8 71 15 87 16 54 3 37 22 -27 30 -70 9 -173
10 -230 1 -33 -5 -38 -3 -38 13 0 14 -12 22 -47 32 -67 19 -82 20 -94 4 -7 -7
-29 -13 -53 -12 -22 1 -33 3 -23 6 9 2 17 11 17 19 0 8 6 14 14 14 8 0 19 12
25 28 l11 27 -5 -28 c-5 -24 -4 -27 9 -15 7 7 12 17 9 21 -3 5 4 11 15 14 23
5 36 40 18 46 -8 3 -7 9 3 20 7 10 10 17 6 17 -4 0 -3 6 3 13 6 7 9 25 6 40
-2 15 0 27 5 27 6 0 8 7 5 15 -4 11 1 15 17 15 59 1 75 102 23 137 l-24 16 21
36 c18 29 22 53 23 126 1 93 1 94 -49 149 -12 12 -35 105 -35 138 0 22 -105
168 -121 168 -5 0 -9 7 -9 16 0 10 -6 14 -15 10 -13 -5 -20 5 -16 27 0 4 -2 6
-6 6 -21 -3 -33 2 -33 16 0 8 5 15 10 15 6 0 10 7 10 15 0 8 -4 15 -10 15 -5
0 -10 -4 -10 -10 0 -5 -4 -10 -10 -10 -5 0 -7 6 -4 14 6 15 -61 46 -101 46
-14 0 -34 9 -44 19 -20 20 -20 20 1 27 15 4 17 8 8 14 -16 10 33 35 143 75 49
18 74 32 69 37 -6 6 -18 6 -31 -1 -36 -20 -23 -4 16 19 30 17 34 18 22 4 -13
-16 -12 -17 4 -11 10 4 21 7 23 7 2 0 4 10 4 23 0 25 53 72 69 62 5 -3 12 1
14 7 4 10 6 10 6 1 1 -8 8 -10 19 -6 15 6 15 5 3 -10 -7 -9 -11 -17 -7 -17 3
0 13 12 22 26 15 22 15 27 3 36 -12 8 -11 9 2 5 9 -3 25 6 40 24 14 18 38 31
59 35 19 4 95 35 168 70 142 68 147 70 137 53 -4 -6 2 -5 13 2 25 16 49 0 68
-48 8 -17 24 -43 36 -57 13 -13 36 -51 52 -83 15 -32 36 -73 44 -90 9 -18 20
-33 24 -33 5 0 8 -7 8 -15 0 -8 5 -15 10 -15 6 0 10 -7 10 -15 0 -8 4 -15 8
-15 5 0 15 -22 24 -50 9 -27 12 -50 8 -50 -5 0 -24 9 -42 19 -28 16 -42 18
-92 11 -33 -5 -62 -8 -65 -8 -7 1 -28 -6 -81 -28 -19 -8 -48 -17 -65 -20 -27
-4 -88 -19 -125 -29 -8 -3 -15 -16 -15 -30 0 -17 4 -24 14 -20 9 3 11 0 7 -10
-4 -13 -2 -14 14 -5 23 12 33 13 26 2 -3 -5 9 -7 27 -5 30 3 29 2 -13 -17 -87
-38 -94 -44 -103 -84 -7 -29 -6 -40 3 -46 9 -6 4 -10 -16 -12 -25 -4 -27 -5
-9 -12 47 -19 65 -30 65 -43 0 -11 11 -14 38 -12 52 4 56 8 30 30 l-23 19 29
-10 c49 -18 39 -5 -15 20 -42 18 -48 25 -35 32 12 7 24 3 43 -11 53 -42 143
-11 146 52 2 33 24 35 61 6 19 -15 25 -27 21 -40 -4 -11 -2 -19 4 -19 6 0 11
7 11 16 0 8 4 13 10 9 5 -3 7 -11 4 -18 -3 -8 9 -13 33 -14 27 -2 34 0 23 6
-8 6 -11 13 -7 17 4 4 -1 13 -11 21 -16 12 -16 13 1 7 26 -9 22 19 -8 55 -26
30 -79 53 -121 54 -39 0 -27 12 29 30 81 26 144 29 165 8 9 -10 29 -26 43 -35
48 -30 60 -210 33 -481 l-6 -60 26 40 c14 22 38 78 53 125 29 89 72 144 105
134 13 -4 19 6 28 52 13 62 8 130 -17 238 -15 65 -15 70 2 102 17 31 27 114
15 114 -3 0 -5 35 -5 77 0 102 -11 253 -20 276 -4 10 -3 17 4 17 6 0 11 7 11
15 0 8 5 15 10 15 6 0 10 -4 10 -10 0 -5 21 -21 46 -36 36 -21 48 -24 57 -14
9 10 8 12 -5 7 -11 -4 -31 11 -65 47 -61 68 -103 126 -103 143 0 7 -4 13 -10
13 -5 0 -10 6 -10 13 0 7 -5 18 -11 24 -6 6 -20 31 -31 54 l-19 43 25 -24 c21
-19 26 -20 26 -7 0 9 -9 22 -20 30 -11 8 -17 17 -13 21 9 9 -28 35 -50 36 -11
0 -20 10 -23 29 -3 16 -19 43 -35 61 -16 17 -29 37 -29 44 0 7 -9 21 -20 31
-11 10 -20 23 -20 29 0 11 -77 96 -87 96 -3 0 -3 -7 0 -14 4 -10 1 -13 -9 -9
-8 3 -13 12 -10 19 5 12 -5 18 -26 15 -4 0 -5 8 -3 19 2 12 -1 17 -9 14 -6 -2
-22 6 -35 20 -13 13 -29 22 -37 19 -8 -3 -14 0 -14 6 0 6 -6 11 -14 11 -7 0
-30 7 -50 15 -20 8 -38 15 -41 15 -3 0 -17 10 -31 23 -42 39 -210 118 -280
131 -11 2 -48 14 -84 25 -139 46 -336 63 -450 40z m795 -199 c4 -6 -5 -5 -19
2 -14 6 -26 15 -26 20 0 10 36 -7 45 -22z m196 -87 c13 -16 12 -17 -3 -4 -17
13 -22 21 -14 21 2 0 10 -8 17 -17z m170 -160 c13 -16 12 -17 -3 -4 -10 7 -18
15 -18 17 0 8 8 3 21 -13z m283 -533 c6 -9 1 -5 -11 8 -13 13 -23 28 -23 35 0
7 6 3 12 -8 6 -11 16 -27 22 -35z m-543 -20 c-13 -11 -20 -20 -16 -20 3 0 -6
-12 -22 -28 -26 -25 -141 -92 -159 -92 -4 0 17 25 48 55 30 30 54 55 51 55 -2
0 2 6 9 14 7 8 16 12 21 9 4 -2 7 1 7 7 0 6 3 9 8 7 4 -3 16 -1 27 4 38 15 51
9 26 -11z m-131 -17 c-8 -3 -21 -10 -28 -16 -9 -7 -11 -6 -6 7 3 9 16 16 28
15 14 0 16 -2 6 -6z m-20 -41 c0 -20 -73 -92 -93 -92 -20 1 -20 2 -5 13 10 8
13 18 9 26 -6 10 -12 7 -25 -10 -9 -13 -16 -18 -16 -12 0 13 27 36 46 39 8 1
29 12 47 23 37 24 37 24 37 13z m459 -247 l0 -20 -9 20 c-5 11 -9 29 -9 40 l0
20 9 -20 c5 -11 9 -29 9 -40z m-1279 -355 c0 -5 7 -7 15 -4 8 4 15 1 15 -5 0
-6 -8 -11 -18 -11 -10 0 -22 -4 -28 -10 -15 -15 -104 -20 -104 -5 0 14 22 25
51 25 11 0 17 5 14 10 -4 6 7 10 24 10 17 0 31 -4 31 -10z m1123 -13 c34 -15
64 -44 54 -53 -3 -3 -16 1 -29 10 -12 8 -45 20 -73 27 -27 6 -54 16 -59 20
-16 14 71 10 107 -4z m-1213 -51 c0 -2 -7 -7 -16 -10 -8 -3 -12 -2 -9 4 6 10
25 14 25 6z m1110 -16 c0 -5 -4 -10 -10 -10 -5 0 -10 5 -10 10 0 6 5 10 10 10
6 0 10 -4 10 -10z m-788 -40 c16 -16 35 -30 41 -30 7 0 5 -5 -4 -10 -9 -5 -24
-20 -32 -34 -15 -22 -15 -24 1 -20 9 2 24 0 32 -6 13 -9 13 -11 0 -20 -13 -8
-13 -10 -1 -10 12 0 11 -3 -2 -12 -11 -9 -15 -21 -10 -37 6 -22 7 -22 18 -7
11 14 12 12 10 -15 -1 -21 -17 -46 -49 -80 -25 -26 -46 -55 -46 -64 0 -8 -3
-14 -7 -14 -25 4 -35 -3 -30 -21 3 -11 -3 -30 -14 -44 -10 -13 -19 -30 -20
-38 0 -10 -2 -10 -6 0 -2 6 -9 10 -14 6 -5 -3 -9 0 -9 7 0 7 -6 5 -14 -6 -9
-12 -19 -16 -32 -11 -10 4 -15 4 -12 1 4 -4 -3 -17 -15 -29 -18 -18 -24 -20
-35 -10 -7 7 -21 11 -32 9 -13 -2 -20 2 -20 11 0 8 -10 14 -25 14 -22 0 -25 5
-25 33 0 17 -3 43 -5 57 -5 22 -4 22 4 5 8 -16 10 -12 10 23 1 44 15 56 26 22
3 -11 10 -20 15 -20 17 0 39 31 33 48 -5 14 -3 15 8 5 19 -19 26 -16 33 12 4
14 11 25 17 25 6 0 7 6 1 16 -18 32 -2 61 41 74 23 7 49 15 57 18 8 3 24 4 35
3 17 -2 17 0 5 9 -12 8 -13 12 -2 19 8 5 -16 10 -64 14 -75 6 -93 14 -94 45 0
10 5 9 22 -2 32 -22 94 -20 117 3 11 11 23 36 27 55 8 44 26 46 66 6z m-82 0
c0 -5 -4 -10 -10 -10 -5 0 -10 5 -10 10 0 6 5 10 10 10 6 0 10 -4 10 -10z
m-284 -297 c-3 -8 -6 -21 -6 -29 0 -18 -16 -18 -23 0 -9 24 3 55 20 49 8 -3
12 -12 9 -20z m29 -213 c3 -5 1 -10 -4 -10 -6 0 -11 5 -11 10 0 6 2 10 4 10 3
0 8 -4 11 -10z m295 -80 c0 -5 -5 -10 -11 -10 -5 0 -7 5 -4 10 3 6 8 10 11 10
2 0 4 -4 4 -10z m18 -15 c-4 -19 -1 -25 13 -25 23 0 83 -55 75 -68 -3 -6 -2
-12 4 -14 5 -1 7 -13 4 -25 -4 -15 -12 -20 -26 -18 -11 3 -31 -8 -50 -25 -17
-16 -34 -27 -39 -24 -5 3 -9 -5 -9 -17 0 -17 -3 -19 -14 -10 -11 9 -15 9 -19
-1 -4 -10 -8 -10 -16 2 -6 8 -9 20 -7 26 2 6 0 17 -5 25 -6 10 -9 10 -9 2 0
-7 -7 -13 -15 -13 -18 0 -19 14 -3 43 6 12 11 39 9 60 -1 21 1 48 5 60 l8 22
5 -22 c6 -20 8 -21 31 -7 l25 15 -25 -7 c-22 -6 -23 -5 -8 10 9 9 24 13 32 10
10 -4 18 0 22 10 9 25 17 19 12 -9z m57 -355 c13 21 24 10 15 -16 -7 -16 -7
-23 0 -19 6 3 10 -3 10 -14 0 -11 -9 -22 -20 -26 -11 -3 -20 -15 -20 -25 0
-10 -7 -31 -15 -46 -8 -16 -15 -36 -15 -44 0 -9 -5 -21 -12 -28 -9 -9 -9 -12
3 -12 9 -1 6 -7 -10 -21 -13 -11 -26 -17 -30 -14 -3 3 0 10 8 14 7 5 13 12 13
16 0 11 -24 25 -42 25 -13 0 -13 -1 0 -10 13 -9 13 -10 0 -10 -19 1 -50 24
-50 38 0 6 9 13 20 17 16 5 18 10 10 31 -13 33 -13 34 4 28 8 -3 18 7 26 25 7
17 18 31 26 31 8 0 11 6 8 15 -4 9 3 16 19 20 19 5 24 11 19 23 -5 15 -3 15
10 4 11 -9 18 -10 23 -2z m-936 -456 c-6 -7 -15 -11 -21 -8 -5 3 -4 12 3 20 6
7 15 11 21 8 5 -3 4 -12 -3 -20z m27 -20 c-4 -11 -1 -14 12 -12 19 3 25 -8 16
-34 -6 -21 -34 -24 -34 -4 0 7 -7 19 -15 26 -12 10 -13 16 -4 26 16 19 33 18
25 -2z m-16 -54 l21 -29 -26 -41 c-14 -22 -27 -40 -30 -40 -2 0 -12 11 -21 25
-16 24 -15 28 7 70 13 25 25 45 26 45 1 0 11 -13 23 -30z"/>
<path d="M1500 1329 c0 -5 5 -7 10 -4 6 3 10 8 10 11 0 2 -4 4 -10 4 -5 0 -10
-5 -10 -11z"/>
<path d="M3505 4140 c3 -5 8 -10 11 -10 2 0 4 5 4 10 0 6 -5 10 -11 10 -5 0
-7 -4 -4 -10z"/>
<path d="M3560 4041 c0 -5 5 -13 10 -16 6 -3 10 -2 10 4 0 5 -4 13 -10 16 -5
3 -10 2 -10 -4z"/>
<path d="M3658 3968 c5 -5 16 -8 23 -6 8 3 3 7 -10 11 -17 4 -21 3 -13 -5z"/>
<path d="M2741 3346 c-7 -9 -16 -14 -20 -12 -3 2 -14 -1 -22 -8 -15 -10 -14
-13 8 -23 14 -7 23 -9 19 -6 -3 4 4 12 18 17 17 8 22 16 17 29 -6 17 -8 17
-20 3z"/>
<path d="M2780 3293 c0 -5 8 -17 17 -28 14 -18 15 -18 9 -2 -3 10 -6 23 -6 28
0 5 -4 9 -10 9 -5 0 -10 -3 -10 -7z"/>
<path d="M2670 3265 c-7 -9 -8 -15 -2 -15 5 0 12 7 16 15 3 8 4 15 2 15 -2 0
-9 -7 -16 -15z"/>
<path d="M2450 3160 c-18 -12 -2 -12 25 0 13 6 15 9 5 9 -8 0 -22 -4 -30 -9z"/>
<path d="M2961 2246 c-9 -11 -5 -16 21 -25 38 -14 59 0 35 23 -19 20 -41 20
-56 2z"/>
<path d="M2990 2130 c0 -5 5 -10 11 -10 5 0 7 5 4 10 -3 6 -8 10 -11 10 -2 0
-4 -4 -4 -10z"/>
<path d="M2845 2120 c3 -5 10 -10 16 -10 5 0 9 5 9 10 0 6 -7 10 -16 10 -8 0
-12 -4 -9 -10z"/>
<path d="M2872 2068 c0 -13 -1 -27 -3 -33 -3 -12 12 -85 18 -85 27 0 35 75 9
93 -7 4 -8 10 -1 15 18 13 16 32 -4 32 -12 0 -19 -7 -19 -22z"/>
<path d="M3140 2008 c0 -10 2 -18 4 -18 2 0 11 -3 20 -6 9 -3 16 -1 16 6 0 6
-4 9 -9 5 -6 -3 -14 3 -20 12 -10 17 -10 17 -11 1z"/>
<path d="M2826 1694 c-9 -8 -20 -13 -25 -9 -5 3 -13 1 -16 -5 -4 -6 -3 -10 2
-9 21 4 33 -2 33 -15 0 -22 15 -27 43 -17 33 13 43 42 21 58 -23 17 -39 16
-58 -3z m34 -24 c0 -5 -4 -10 -10 -10 -5 0 -10 5 -10 10 0 6 5 10 10 10 6 0
10 -4 10 -10z"/>
<path d="M2657 1687 c-5 -13 30 -43 40 -34 5 6 -19 47 -28 47 -4 0 -9 -6 -12
-13z"/>
<path d="M2565 1610 c3 -5 8 -10 11 -10 2 0 4 5 4 10 0 6 -5 10 -11 10 -5 0
-7 -4 -4 -10z"/>
<path d="M1407 1474 l-12 -27 -7 24 c-4 15 -6 6 -5 -27 1 -29 5 -50 10 -47 15
9 6 -14 -22 -59 -16 -25 -32 -54 -35 -65 -4 -11 -15 -28 -26 -38 -26 -23 -26
-39 -1 -25 11 5 36 44 56 85 20 41 40 75 44 75 5 0 11 9 14 20 3 11 0 18 -7
17 -15 -3 -15 32 1 66 7 15 11 27 8 27 -3 0 -11 -12 -18 -26z"/>
<path d="M1425 1459 c-4 -6 -5 -12 -2 -15 2 -3 7 2 10 11 7 17 1 20 -8 4z"/>
<path d="M1345 1398 l-16 -33 20 25 c20 24 26 40 16 40 -2 0 -12 -15 -20 -32z"/>
<path d="M3190 1420 c-12 -8 -10 -10 8 -10 13 0 20 4 17 10 -7 12 -6 12 -25 0z"/>
<path d="M3110 1391 c0 -5 5 -13 10 -16 6 -3 10 -2 10 4 0 5 -4 13 -10 16 -5
3 -10 2 -10 -4z"/>
<path d="M3145 1390 c3 -5 8 -10 11 -10 2 0 4 5 4 10 0 6 -5 10 -11 10 -5 0
-7 -4 -4 -10z"/>
<path d="M1617 1366 c-3 -8 -2 -18 3 -21 13 -8 24 15 12 27 -6 6 -11 4 -15 -6z"/>
<path d="M1312 1343 c-7 -11 -5 -21 5 -31 18 -19 27 -9 14 16 -6 11 -7 22 -4
26 3 3 4 6 0 6 -3 0 -10 -8 -15 -17z"/>
<path d="M3120 1356 c0 -2 7 -6 15 -10 8 -3 15 -1 15 4 0 6 -7 10 -15 10 -8 0
-15 -2 -15 -4z"/>
<path d="M1586 1332 c-3 -5 -3 -17 0 -25 3 -9 -2 -20 -14 -26 -23 -12 -35 -38
-23 -46 5 -3 19 11 31 31 14 25 24 34 31 27 7 -7 1 -25 -19 -57 l-30 -47 -21
28 c-14 20 -20 23 -21 12 0 -9 10 -23 22 -31 21 -14 21 -14 2 -43 -10 -16 -18
-29 -16 -30 2 0 0 -8 -3 -17 -8 -19 -25 -25 -25 -8 0 13 -62 100 -72 100 -4 0
-8 6 -8 14 0 8 -7 17 -16 20 -11 4 -14 13 -11 27 4 16 3 18 -9 8 -8 -6 -14
-17 -14 -23 0 -15 -46 -56 -54 -49 -3 4 -6 1 -6 -5 0 -36 46 -13 63 32 6 15
10 17 19 8 15 -15 -5 -55 -36 -72 -20 -10 -27 -8 -55 20 -23 23 -30 38 -26 54
5 19 5 19 -5 3 -7 -10 -9 -25 -6 -33 3 -8 -1 -26 -10 -40 -20 -30 -9 -32 17
-1 12 15 18 17 19 8 0 -8 -7 -23 -17 -33 -9 -10 -11 -18 -5 -18 6 0 16 8 21
18 9 15 12 15 20 2 7 -11 5 -17 -7 -24 -39 -22 -46 -36 -27 -56 17 -18 17 -21
1 -45 -12 -19 -22 -24 -39 -20 -16 4 -34 -3 -62 -26 -33 -26 -35 -31 -15 -24
32 9 79 9 88 0 4 -4 1 -10 -5 -12 -21 -7 -15 -25 6 -18 22 7 94 -32 85 -46 -7
-12 9 -12 22 1 6 6 14 2 23 -12 12 -19 11 -20 -8 -15 -30 7 -17 -8 18 -22 28
-12 33 -24 19 -47 -4 -6 6 -25 23 -42 17 -17 28 -36 25 -41 -4 -6 5 -18 19
-27 17 -11 22 -20 16 -28 -7 -8 -4 -16 10 -25 12 -7 19 -15 16 -17 -2 -3 13
-23 34 -45 42 -43 46 -54 27 -63 -9 -3 -8 -5 2 -4 27 3 60 -13 60 -29 0 -8 -6
-13 -13 -10 -7 3 -13 -3 -13 -13 0 -10 5 -16 11 -13 11 4 40 -44 36 -60 -1 -5
3 -6 8 -3 13 8 34 -21 27 -39 -3 -10 1 -15 13 -15 11 0 24 -12 31 -30 7 -16
16 -27 21 -25 11 7 32 -33 24 -45 -3 -5 1 -7 9 -4 8 3 19 -3 25 -15 7 -11 23
-32 37 -46 14 -14 23 -32 20 -40 -3 -9 0 -12 8 -9 8 3 16 -5 20 -20 11 -46 44
-66 105 -66 30 0 51 3 48 7 -9 8 13 34 23 28 4 -3 11 2 14 11 3 8 2 13 -2 10
-4 -3 -13 4 -20 14 -7 12 -8 21 -2 25 6 4 8 11 4 16 -3 5 -10 7 -15 4 -5 -3
-7 0 -4 7 2 7 -16 36 -41 63 -25 28 -65 72 -87 99 -23 27 -54 60 -68 75 -14
14 -54 58 -88 98 -56 65 -61 74 -51 95 10 20 10 21 -3 6 -13 -16 -16 -15 -45
15 -18 18 -32 39 -32 47 0 7 15 30 34 49 18 20 57 63 86 96 51 57 50 57 -15
-9 -43 -43 -70 -65 -73 -57 -3 8 -13 22 -23 32 -21 21 -25 44 -7 55 14 9 40
-25 31 -40 -4 -8 -3 -8 6 0 6 6 14 24 17 40 5 27 4 28 -9 10 -20 -27 -33 -2
-16 30 12 24 29 32 29 14 0 -5 10 -15 23 -21 20 -10 19 -9 -5 17 l-27 29 22
18 c11 9 16 17 10 17 -6 0 -16 -7 -23 -15 -11 -13 -16 -11 -41 13 -35 33 -35
36 -4 76 14 17 29 36 33 41 4 6 13 18 20 27 11 14 11 16 -7 11 -10 -3 -22 -15
-25 -26 -4 -12 -18 -35 -31 -52 -25 -29 -26 -29 -40 -11 -9 11 -15 14 -15 7 0
-7 7 -19 15 -27 12 -12 13 -20 4 -37 -19 -37 -40 -56 -55 -50 -19 7 -18 -11 1
-27 8 -7 15 -18 15 -25 0 -7 7 -15 15 -19 21 -8 19 -38 -4 -58 -18 -15 -21
-14 -50 20 l-31 36 23 25 22 25 -28 -18 c-28 -17 -29 -17 -43 3 -8 11 -22 28
-32 37 -9 10 -22 29 -29 43 -6 14 -12 20 -12 13 -2 -22 -21 -2 -21 21 -1 21
-31 67 -44 67 -3 0 -6 -10 -6 -22 0 -17 -3 -19 -12 -10 -8 8 -8 15 2 27 20 25
4 29 -20 5 -17 -17 -19 -24 -9 -36 10 -12 9 -17 -1 -27 -10 -9 -11 -9 -6 1 4
7 3 19 -3 26 -8 10 -7 22 5 46 14 27 15 37 5 52 -10 17 -9 23 10 39 12 10 26
19 30 19 4 0 15 7 24 16 13 14 18 14 32 2 9 -7 18 -11 20 -10 3 2 8 0 11 -4 4
-4 2 -4 -5 0 -6 3 -15 1 -18 -5 -5 -7 -1 -10 10 -7 10 1 20 13 22 26 3 20 0
21 -16 12 -28 -14 -38 6 -15 31 18 20 18 19 41 -7 13 -15 23 -30 23 -34 0 -4
-13 -19 -30 -33 -16 -15 -30 -23 -30 -17 0 5 -8 7 -17 4 -12 -4 -14 -3 -6 3 7
5 8 14 4 21 -9 15 -41 5 -41 -13 0 -8 -9 -17 -20 -20 -11 -4 -18 -11 -14 -16
4 -6 12 -4 23 5 11 10 21 12 31 6 11 -7 9 -12 -11 -29 -13 -11 -19 -20 -12
-21 6 0 15 5 18 10 12 19 38 11 32 -9 -3 -14 -1 -18 9 -14 23 8 29 -26 8 -43
-18 -14 -18 -14 4 -4 27 13 42 6 42 -20 0 -12 5 -17 14 -14 7 3 16 -2 19 -10
4 -9 3 -16 -1 -16 -4 0 -18 -10 -32 -21 l-25 -20 32 15 c41 20 40 21 56 -9
l13 -26 24 26 c13 14 18 25 12 25 -7 0 -12 -4 -12 -10 0 -5 -7 -7 -15 -4 -21
8 -19 17 16 69 17 25 29 51 26 58 -3 6 -10 0 -16 -16 -15 -37 -47 -71 -60 -62
-8 4 -6 11 5 22 11 11 12 19 5 26 -8 8 -14 8 -22 0 -6 -6 -18 -9 -25 -6 -10 4
-8 10 10 24 14 11 28 28 31 39 8 26 22 25 30 0 4 -11 11 -18 16 -14 6 4 1 16
-12 30 -21 22 -21 24 -5 49 9 14 14 25 11 25 -3 0 0 10 6 22 11 21 12 21 25 3
7 -10 11 -23 7 -29 -3 -6 -3 -8 2 -4 4 4 14 3 21 -3 11 -9 10 -17 -7 -41 -12
-16 -19 -32 -16 -35 3 -2 13 9 22 26 16 31 35 34 35 5 0 -8 8 -14 17 -14 14 0
13 4 -6 24 l-23 25 38 45 38 46 33 -32 c18 -18 33 -29 33 -25 0 3 -15 20 -32
37 -28 26 -31 32 -18 41 12 9 12 10 -3 5 -13 -4 -28 4 -48 25 -28 30 -28 31
-12 57 l17 27 -23 -20 -23 -19 -17 23 c-11 14 -21 20 -25 13z m64 -77 c10 -12
7 -19 -16 -38 -19 -17 -24 -26 -15 -31 8 -5 14 -1 18 12 8 33 54 40 53 9 -1
-14 -67 -94 -72 -87 -2 3 -14 17 -27 32 l-23 27 28 45 c32 50 36 53 54 31z
m-158 -156 c16 -27 16 -32 2 -54 -14 -21 -44 -41 -44 -29 0 2 7 15 15 28 14
21 14 24 -2 37 -11 9 -14 10 -9 1 5 -8 -2 -16 -19 -22 -36 -14 -39 -13 -20 6
9 9 23 27 32 40 20 31 24 30 45 -7z m-128 -161 c-4 -6 -10 -5 -15 3 -14 22
-10 33 6 19 8 -7 12 -17 9 -22z m-29 -9 c11 -17 -1 -21 -15 -4 -8 9 -8 15 -2
15 6 0 14 -5 17 -11z m314 -114 l-31 -45 -22 32 -22 33 25 41 26 41 27 -28 28
-28 -31 -46z m21 -134 c0 -4 -10 -17 -23 -29 l-23 -21 -28 35 -28 36 23 24 23
24 28 -30 c15 -17 28 -35 28 -39z m-183 43 c-3 -3 -12 -4 -19 -1 -8 3 -5 6 6
6 11 1 17 -2 13 -5z m23 -54 c0 -5 -4 -10 -10 -10 -5 0 -10 5 -10 10 0 6 5 10
10 10 6 0 10 -4 10 -10z m50 -36 c0 -2 -9 -4 -21 -4 -11 0 -18 4 -14 10 5 8
35 3 35 -6z m498 -585 c-3 -8 -7 -3 -11 10 -4 17 -3 21 5 13 5 -5 8 -16 6 -23z"/>
<path d="M1621 837 c-13 -21 -12 -21 5 -5 10 10 16 20 13 22 -3 3 -11 -5 -18
-17z"/>
<path d="M3257 1333 c-7 -11 -17 -145 -22 -293 -4 -139 -10 -190 -55 -430 -16
-90 -33 -202 -36 -249 -4 -46 -19 -129 -34 -184 -27 -96 -29 -134 -7 -120 6 3
7 1 3 -5 -11 -17 11 -51 31 -48 10 2 19 8 19 14 1 7 2 18 3 25 1 10 15 14 45
13 27 -1 50 5 58 13 11 12 10 13 -4 8 -10 -4 -18 -2 -18 2 0 5 -13 4 -30 -2
-38 -14 -46 -5 -30 33 7 17 10 33 7 36 -3 3 -10 -11 -17 -30 -18 -54 -30 -43
-24 21 2 32 6 83 8 113 2 30 4 61 5 68 1 7 6 10 11 7 6 -4 17 -2 24 4 9 8 18
7 32 -4 18 -13 18 -14 -6 -9 l-25 5 25 -15 c14 -8 35 -15 47 -16 12 0 26 -7
31 -16 8 -14 10 -14 25 1 16 15 17 15 17 -5 0 -12 -5 -30 -10 -41 -15 -27 5
-25 24 3 12 17 13 24 3 30 -9 5 -9 12 -1 25 9 14 6 23 -11 41 -13 13 -33 29
-46 36 -29 14 -38 46 -12 41 10 -1 17 -9 15 -16 -6 -27 15 6 27 40 l11 35 -22
-20 c-47 -42 -74 -5 -43 57 14 27 14 31 0 46 -9 8 -14 22 -11 30 4 9 2 11 -6
7 -8 -5 -9 -2 -5 10 4 10 7 20 7 23 0 3 9 -6 20 -20 11 -14 20 -30 20 -37 0
-6 5 -8 10 -5 6 3 13 -1 16 -9 8 -20 20 -20 27 -2 4 10 1 13 -7 10 -8 -3 -17
0 -21 6 -5 7 13 32 44 62 54 52 60 61 37 52 -9 -3 -17 3 -21 15 -3 12 -11 21
-16 21 -23 0 -5 29 36 58 25 17 45 37 45 43 0 6 -8 2 -17 -10 -10 -12 -28 -23
-40 -24 -12 0 -20 -4 -17 -8 6 -10 -21 -30 -30 -22 -3 4 5 19 20 34 16 17 22
29 15 33 -17 11 -13 44 5 54 16 9 16 11 0 33 -20 29 -20 40 -1 33 21 -8 19 -3
-16 61 -17 31 -29 59 -26 61 3 3 24 -29 48 -70 39 -70 59 -92 59 -66 0 6 -5
10 -11 10 -5 0 -9 8 -7 18 1 9 -1 18 -6 19 -15 3 -26 27 -26 60 0 17 -5 33
-11 35 -5 2 -10 22 -11 46 0 38 -7 47 -31 43 -5 -1 -6 3 -2 9 7 11 -15 80 -25
80 -4 0 -13 18 -20 40 -14 42 -34 67 -43 53z m57 -219 c3 -8 2 -12 -4 -9 -6 3
-10 10 -10 16 0 14 7 11 14 -7z m26 -125 c0 -5 6 -7 13 -3 9 5 9 4 0 -6 -6 -7
-16 -9 -22 -6 -14 9 -14 26 -1 26 6 0 10 -5 10 -11z m-34 -47 c-18 -16 -18
-16 -6 6 6 13 14 21 18 18 3 -4 -2 -14 -12 -24z m74 -51 c0 -12 -20 -25 -27
-18 -7 7 6 27 18 27 5 0 9 -4 9 -9z m-17 -214 c-3 -6 -1 -7 5 -3 6 3 14 1 17
-5 4 -6 -11 -28 -33 -49 l-40 -39 -16 24 c-20 30 -20 30 1 50 13 13 13 19 4
25 -9 5 -10 10 -3 14 6 4 8 14 5 23 -4 10 -2 14 5 9 6 -3 14 -1 17 5 5 7 14 0
26 -17 10 -15 15 -32 12 -37z m-100 -173 c-9 -15 -19 -21 -21 -15 -4 13 16 41
29 41 5 0 2 -12 -8 -26z m-73 -164 c0 -5 -7 -7 -15 -4 -8 4 -15 8 -15 10 0 2
7 4 15 4 8 0 15 -4 15 -10z m110 -15 c0 -8 -4 -15 -10 -15 -5 0 -7 7 -4 15 4
8 8 15 10 15 2 0 4 -7 4 -15z"/>
<path d="M3317 699 c-3 -13 -1 -19 6 -16 15 5 22 37 9 37 -5 0 -12 -9 -15 -21z"/>
<path d="M3320 650 c0 -5 5 -10 11 -10 5 0 7 5 4 10 -3 6 -8 10 -11 10 -2 0
-4 -4 -4 -10z"/>
<path d="M3300 626 c0 -9 5 -16 10 -16 6 0 10 4 10 9 0 6 -4 13 -10 16 -5 3
-10 -1 -10 -9z"/>
<path d="M2720 1319 c0 -5 5 -7 10 -4 6 3 10 8 10 11 0 2 -4 4 -10 4 -5 0 -10
-5 -10 -11z"/>
<path d="M1291 1264 c0 -11 3 -14 6 -6 3 7 2 16 -1 19 -3 4 -6 -2 -5 -13z"/>
<path d="M1740 1250 c-9 -6 -10 -10 -3 -10 6 0 15 5 18 10 8 12 4 12 -15 0z"/>
<path d="M1482 1205 c-17 -37 -14 -45 4 -12 9 16 14 31 11 33 -2 2 -9 -7 -15
-21z"/>
<path d="M3065 1190 c-16 -7 -17 -9 -3 -9 9 -1 20 4 23 9 7 11 7 11 -20 0z"/>
<path d="M1500 1170 c0 -5 5 -10 11 -10 5 0 7 5 4 10 -3 6 -8 10 -11 10 -2 0
-4 -4 -4 -10z"/>
<path d="M1805 1160 c-3 -5 -2 -10 4 -10 5 0 13 5 16 10 3 6 2 10 -4 10 -5 0
-13 -4 -16 -10z"/>
<path d="M2990 1160 c-11 -8 -7 -9 15 -4 37 8 45 14 19 14 -10 0 -26 -5 -34
-10z"/>
<path d="M1768 1123 c-8 -10 -18 -25 -22 -33 -4 -8 1 -4 12 10 18 22 22 23 39
10 17 -14 17 -14 3 5 -8 11 -15 21 -16 23 0 1 -8 -6 -16 -15z"/>
<path d="M1879 1053 c-13 -16 -12 -17 4 -4 16 13 21 21 13 21 -2 0 -10 -8 -17
-17z"/>
<path d="M1245 1037 c-8 -19 -2 -31 13 -26 5 2 6 13 2 24 -7 19 -8 19 -15 2z"/>
<path d="M1620 1030 c0 -5 5 -10 11 -10 5 0 7 5 4 10 -3 6 -8 10 -11 10 -2 0
-4 -4 -4 -10z"/>
<path d="M1716 1007 c3 -10 9 -15 12 -12 3 3 0 11 -7 18 -10 9 -11 8 -5 -6z"/>
<path d="M1670 940 c0 -5 5 -10 11 -10 5 0 7 5 4 10 -3 6 -8 10 -11 10 -2 0
-4 -4 -4 -10z"/>
<path d="M1122 914 c-1 -13 3 -24 8 -24 6 0 10 4 10 10 0 5 16 12 35 16 45 8
56 24 13 17 -18 -3 -35 -7 -37 -9 -2 -2 -9 0 -15 6 -8 6 -12 1 -14 -16z"/>
<path d="M1800 926 c0 -2 8 -10 18 -17 15 -13 16 -12 3 4 -13 16 -21 21 -21
13z"/>
<path d="M1086 907 c-16 -12 -16 -15 -3 -26 10 -8 17 -9 22 -1 3 5 0 10 -7 10
-10 0 -9 3 2 10 8 5 12 11 9 14 -3 3 -13 0 -23 -7z"/>
<path d="M1018 851 c12 -7 62 -4 62 5 0 2 -17 4 -37 4 -24 0 -33 -3 -25 -9z"/>
<path d="M985 840 c-3 -5 1 -10 10 -10 9 0 13 5 10 10 -3 6 -8 10 -10 10 -2 0
-7 -4 -10 -10z"/>
<path d="M3476 798 c4 -24 7 -74 6 -113 -1 -51 2 -66 9 -55 8 12 10 10 5 -9
-3 -13 1 -30 9 -37 12 -12 14 -11 12 8 -1 13 2 67 6 121 9 105 3 127 -35 127
-18 0 -19 -4 -12 -42z"/>
<path d="M944 817 c-23 -13 -21 -37 4 -37 8 0 12 3 9 7 -4 3 -2 12 5 20 15 19
7 24 -18 10z"/>
<path d="M890 780 c0 -5 4 -10 9 -10 6 0 13 5 16 10 3 6 -1 10 -9 10 -9 0 -16
-4 -16 -10z"/>
<path d="M855 750 c3 -5 12 -10 20 -10 8 0 17 5 20 10 4 6 -5 10 -20 10 -15 0
-24 -4 -20 -10z"/>
<path d="M918 753 c7 -3 16 -2 19 1 4 3 -2 6 -13 5 -11 0 -14 -3 -6 -6z"/>
<path d="M810 720 c8 -5 22 -9 30 -9 10 0 8 3 -5 9 -27 12 -43 12 -25 0z"/>
<path d="M785 680 c-3 -5 -2 -10 4 -10 5 0 13 5 16 10 3 6 2 10 -4 10 -5 0
-13 -4 -16 -10z"/>
<path d="M700 659 c-13 -9 -12 -10 3 -5 19 6 24 -10 5 -17 -9 -4 -9 -6 1 -6
10 -1 7 -9 -10 -28 l-24 -26 38 28 c36 26 37 29 21 46 -10 11 -18 19 -18 19
-1 0 -8 -5 -16 -11z"/>
<path d="M1715 640 c3 -5 8 -10 11 -10 2 0 4 5 4 10 0 6 -5 10 -11 10 -5 0 -7
-4 -4 -10z"/>
<path d="M660 630 c0 -5 5 -10 10 -10 6 0 10 5 10 10 0 6 -4 10 -10 10 -5 0
-10 -4 -10 -10z"/>
<path d="M621 594 c-14 -13 -22 -26 -18 -30 3 -3 13 1 21 9 9 8 21 17 28 20 9
3 10 8 3 15 -7 6 -18 2 -34 -14z"/>
<path d="M580 550 c8 -5 22 -9 30 -9 10 0 8 3 -5 9 -27 12 -43 12 -25 0z"/>
<path d="M636 535 c-9 -14 -15 -25 -13 -25 2 0 13 11 25 25 12 14 18 25 13 25
-5 0 -16 -11 -25 -25z"/>
<path d="M688 553 c7 -3 16 -2 19 1 4 3 -2 6 -13 5 -11 0 -14 -3 -6 -6z"/>
<path d="M1884 538 l-19 -23 23 19 c21 18 27 26 19 26 -2 0 -12 -10 -23 -22z"/>
<path d="M3510 550 c0 -5 5 -10 10 -10 6 0 10 5 10 10 0 6 -4 10 -10 10 -5 0
-10 -4 -10 -10z"/>
<path d="M565 519 c-11 -17 1 -21 15 -4 8 9 8 15 2 15 -6 0 -14 -5 -17 -11z"/>
<path d="M3289 498 c-1 -7 -1 -17 0 -22 1 -5 -2 -12 -7 -15 -6 -3 -3 -12 5
-20 12 -11 14 -10 11 5 -2 11 2 18 8 17 15 -3 12 39 -3 45 -7 2 -14 -2 -14
-10z"/>
<path d="M2704 458 c-4 -6 1 -18 12 -27 11 -9 27 -27 37 -40 l17 -25 -2 37
c-1 29 -5 36 -17 32 -21 -6 -45 10 -37 24 4 6 5 11 2 11 -3 0 -8 -5 -12 -12z"/>
<path d="M3387 426 c-4 -9 -2 -16 3 -16 5 0 12 -11 16 -25 3 -14 10 -25 15
-25 13 0 11 10 -10 49 -14 26 -19 30 -24 17z"/>
<path d="M2810 370 c0 -5 5 -10 11 -10 5 0 7 5 4 10 -3 6 -8 10 -11 10 -2 0
-4 -4 -4 -10z"/>
<path d="M2782 355 c-9 -16 -13 -17 -21 -6 -6 10 -10 10 -16 1 -8 -13 11 -30
36 -30 8 0 20 -5 27 -12 6 -6 15 -8 19 -4 4 4 3 10 -3 14 -5 4 -14 18 -20 32
-10 23 -11 24 -22 5z"/>
<path d="M336 345 c-11 -8 -18 -17 -15 -19 2 -3 15 4 29 14 14 11 21 20 15 19
-5 0 -19 -6 -29 -14z"/>
<path d="M2620 339 c0 -5 5 -7 10 -4 6 3 10 8 10 11 0 2 -4 4 -10 4 -5 0 -10
-5 -10 -11z"/>
<path d="M3420 341 c0 -5 5 -13 10 -16 6 -3 10 -2 10 4 0 5 -4 13 -10 16 -5 3
-10 2 -10 -4z"/>
<path d="M2705 329 c-4 -6 -5 -12 -2 -15 2 -3 7 2 10 11 7 17 1 20 -8 4z"/>
<path d="M2837 301 l-19 -38 -56 13 c-69 17 -82 17 -82 3 0 -5 4 -8 8 -5 5 3
28 -1 53 -9 l44 -14 -37 0 c-34 -1 -68 -21 -35 -21 8 0 17 -9 20 -20 3 -11 11
-20 19 -20 10 0 10 2 -2 10 -8 5 -12 12 -9 15 12 11 81 8 89 -4 6 -11 9 -11
13 0 4 11 7 12 15 1 7 -10 12 -9 23 5 7 10 9 15 4 10 -10 -9 -57 32 -49 45 3
4 18 -1 34 -12 15 -11 31 -20 35 -20 10 0 0 25 -11 26 -32 3 -45 18 -39 45 9
39 4 36 -18 -10z"/>
<path d="M400 319 c0 -5 5 -7 10 -4 6 3 10 8 10 11 0 2 -4 4 -10 4 -5 0 -10
-5 -10 -11z"/>
<path d="M169 237 c5 -5 19 -7 32 -5 20 3 19 5 -9 9 -20 3 -29 2 -23 -4z"/>
<path d="M3305 240 c3 -5 8 -10 11 -10 2 0 4 5 4 10 0 6 -5 10 -11 10 -5 0 -7
-4 -4 -10z"/>
<path d="M2530 216 c0 -6 227 -155 276 -182 59 -31 99 -42 54 -13 -19 12 -71
46 -115 75 -78 52 -215 128 -215 120z"/>
<path d="M105 200 c-3 -5 -1 -10 4 -10 6 0 11 5 11 10 0 6 -2 10 -4 10 -3 0
-8 -4 -11 -10z"/>
<path d="M3305 190 c-4 -6 -11 -8 -16 -5 -5 4 -17 1 -26 -4 -16 -9 -14 -10 10
-11 15 0 27 -4 27 -10 0 -5 9 -1 20 10 11 11 20 22 20 25 0 9 -29 5 -35 -5z"/>
<path d="M155 170 c-3 -5 -2 -10 4 -10 5 0 13 5 16 10 3 6 2 10 -4 10 -5 0
-13 -4 -16 -10z"/>
<path d="M2790 171 c0 -5 7 -11 15 -15 8 -3 15 -1 15 3 0 5 -7 11 -15 15 -8 3
-15 1 -15 -3z"/>
<path d="M46 141 c-4 -5 3 -7 14 -4 23 6 26 13 6 13 -8 0 -17 -4 -20 -9z"/>
<path d="M127 126 c-4 -10 1 -12 14 -9 23 6 24 9 5 16 -8 3 -17 0 -19 -7z"/>
<path d="M3227 126 c-7 -17 8 -24 39 -18 37 7 36 28 -1 30 -21 2 -35 -3 -38
-12z"/>
<path d="M25 110 c-3 -5 -1 -10 4 -10 6 0 11 5 11 10 0 6 -2 10 -4 10 -3 0 -8
-4 -11 -10z"/>
<path d="M96 81 c-4 -7 -5 -15 -2 -18 9 -9 19 4 14 18 -4 11 -6 11 -12 0z"/>
<path d="M316 78 c3 -5 10 -6 15 -3 13 9 11 12 -6 12 -8 0 -12 -4 -9 -9z"/>
<path d="M42 20 c-18 -4 -36 -11 -40 -15 -10 -10 71 6 83 16 11 10 4 10 -43
-1z"/>
<path d="M3175 21 c-2 -5 4 -11 15 -14 11 -3 20 -2 20 3 0 12 -28 21 -35 11z"/>
</g>
</svg>
