<?xml version="1.0" standalone="no"?>
<!DOCTYPE svg PUBLIC "-//W3C//DTD SVG 20010904//EN"
 "http://www.w3.org/TR/2001/REC-SVG-20010904/DTD/svg10.dtd">
<svg version="1.0" xmlns="http://www.w3.org/2000/svg"
 width="310.000000pt" height="310.000000pt" viewBox="0 0 310.000000 310.000000"
 preserveAspectRatio="xMidYMid meet">

<g transform="translate(0.000000,310.000000) scale(0.100000,-0.100000)"
fill="#000000" stroke="none">
<path d="M0 1550 l0 -1550 462 0 c387 0 459 2 444 13 -17 12 -17 17 -5 53 8
21 18 42 24 46 5 4 47 8 93 8 60 0 90 -5 108 -16 54 -36 324 -33 324 4 0 8 11
25 25 38 14 13 25 32 25 44 0 11 10 41 21 66 16 34 19 48 10 57 -17 17 -13 27
9 27 26 0 100 30 100 40 0 5 -42 9 -93 9 -103 0 -125 3 -207 33 -54 19 -99 59
-100 88 0 13 -1 13 -10 0 -7 -11 -10 -5 -10 23 0 35 2 37 33 38 17 0 100 2
182 3 164 3 225 15 261 51 36 36 31 49 -16 42 -40 -5 -49 0 -29 20 19 19 -14
21 -68 3 -39 -13 -53 -14 -57 -5 -2 7 -23 15 -45 19 -26 4 -41 12 -41 21 0 11
15 14 73 12 39 -2 95 3 122 9 28 7 66 14 85 16 20 1 51 15 71 31 21 16 42 25
52 22 18 -7 57 27 57 50 0 23 -31 18 -80 -15 -39 -26 -54 -30 -113 -30 -38 0
-78 -5 -89 -11 -15 -8 -33 -7 -72 5 -32 10 -61 13 -78 8 -15 -4 -50 -5 -78 -4
-40 3 -50 7 -50 22 0 29 -61 41 -113 21 -20 -8 -29 -6 -41 8 -11 12 -29 17
-58 16 -53 -1 -105 19 -112 42 -2 10 -8 37 -11 61 -5 31 -11 42 -24 42 -20 0
-71 72 -71 100 0 23 -36 104 -53 118 -7 6 -19 27 -27 47 -7 19 -17 35 -22 35
-4 0 -8 9 -8 20 0 12 -6 31 -14 43 -20 31 -27 172 -10 195 12 16 18 15 81 -18
37 -19 70 -38 73 -41 3 -3 37 -21 75 -39 66 -32 76 -34 171 -33 56 0 108 4
115 9 8 5 25 7 38 5 14 -2 21 1 17 8 -4 5 2 10 11 11 58 2 82 7 120 24 44 20
55 42 46 87 -3 16 1 44 8 61 15 36 14 68 -3 111 -9 23 -16 27 -48 27 -79 0
-83 20 -20 105 42 58 66 98 80 138 7 19 14 26 22 21 9 -5 9 -2 -1 9 -9 12 -10
17 -2 17 7 0 11 8 9 18 -2 12 3 17 20 16 12 0 22 3 22 8 0 4 -7 8 -15 8 -17 0
-20 31 -4 47 8 8 8 13 0 18 -8 4 -6 11 4 21 8 9 16 32 16 52 l1 37 8 -30 c7
-28 8 -27 10 15 l2 45 8 -40 c4 -22 6 -43 4 -47 -3 -4 5 -12 16 -18 17 -9 22
-7 28 10 7 19 10 20 20 7 30 -35 40 -186 18 -249 -8 -21 -10 -35 -5 -32 15 9
10 -9 -14 -51 -13 -22 -26 -48 -30 -58 -6 -15 -4 -16 13 -7 16 9 20 8 20 -7 0
-10 16 14 35 52 40 80 41 82 20 65 -12 -10 -15 -10 -15 0 0 6 8 14 18 17 20 5
57 95 53 130 -1 11 2 24 8 27 14 9 25 -13 13 -27 -7 -8 -6 -18 2 -30 16 -21
26 -22 26 -2 0 32 30 6 35 -30 0 -5 7 -9 14 -7 9 2 12 -4 8 -18 -3 -11 -2 -18
3 -15 4 3 8 -23 8 -58 0 -34 -2 -56 -5 -49 -8 20 -23 14 -23 -10 0 -27 -57
-88 -76 -81 -8 3 -14 0 -14 -6 0 -6 -6 -11 -12 -11 -18 0 -61 -58 -76 -101
-14 -41 -31 -129 -25 -129 2 0 15 12 29 28 22 24 24 25 19 5 -5 -17 -1 -22 24
-28 40 -8 58 -30 34 -40 -30 -12 33 -34 97 -34 30 0 49 3 43 6 -28 11 -13 33
25 34 61 3 66 4 80 12 6 5 17 5 24 1 8 -5 9 0 5 15 -3 14 -1 21 6 18 7 -2 27
10 45 28 28 26 32 34 24 56 -8 20 -5 30 14 54 20 25 22 26 18 7 -4 -15 -1 -24
10 -28 13 -5 16 -23 16 -99 0 -181 -28 -374 -82 -560 -25 -87 -105 -236 -155
-292 -21 -22 -42 -48 -48 -56 -90 -131 -128 -181 -176 -233 -32 -35 -61 -75
-64 -91 -4 -15 -17 -53 -31 -84 -13 -31 -24 -59 -24 -63 0 -3 -11 -29 -25 -58
-14 -28 -25 -56 -25 -62 0 -5 -6 -17 -14 -25 -8 -9 -17 -31 -21 -48 l-7 -33
499 0 498 1 -58 36 -58 37 7 70 c4 39 9 74 11 79 9 16 23 -5 24 -36 0 -31 1
-31 11 -9 18 36 48 24 74 -28 13 -25 26 -62 29 -83 4 -20 10 -35 15 -32 4 3 6
-4 3 -15 -4 -16 0 -20 17 -20 22 0 23 2 17 80 -4 69 -3 79 9 69 22 -18 19 131
-5 206 -10 33 -17 62 -15 64 2 3 15 -6 29 -19 38 -35 30 -15 -10 26 -19 19
-35 40 -35 45 0 5 -6 9 -14 9 -19 0 -37 24 -39 52 -1 13 -11 35 -21 50 -10 15
-15 31 -12 36 3 6 -1 15 -8 21 -8 7 -26 42 -41 79 -15 37 -33 71 -41 75 -8 4
-14 14 -14 22 0 8 -10 31 -22 51 -12 21 -23 46 -23 57 -1 10 -8 22 -15 27 -8
5 -10 15 -5 26 6 18 8 17 16 -3 4 -13 10 -23 11 -23 6 0 1 85 -6 108 -5 15 2
52 19 108 26 83 29 86 60 62 62 -48 80 -68 95 -102 l18 -41 -3 38 c-2 24 -11
44 -26 56 -39 31 -12 45 29 14 20 -15 39 -28 41 -30 2 -1 -1 -9 -7 -16 -7 -8
-9 -17 -5 -20 3 -4 1 -12 -4 -19 -16 -19 -11 -48 15 -89 12 -20 22 -44 22 -53
0 -10 5 -14 10 -11 6 3 10 16 10 27 0 24 27 124 41 151 6 10 7 23 3 29 -4 6
-3 8 3 5 6 -4 13 0 17 8 4 11 -1 15 -17 15 -17 0 -35 22 -80 93 -32 50 -79
121 -104 157 -87 125 -93 156 -61 308 13 59 23 66 32 20 10 -52 15 -27 5 32
-4 30 -15 102 -24 160 -9 58 -27 141 -40 185 -34 114 -48 235 -35 300 7 36 8
37 9 10 l2 -30 12 29 13 29 204 -1 c196 -2 303 -6 418 -18 l52 -5 0 320 0 321
-1550 0 -1550 0 0 -1550z m1320 930 c0 -5 9 -10 20 -10 11 0 20 -5 20 -11 0
-5 4 -8 9 -4 5 3 13 -5 17 -17 6 -21 7 -21 21 -2 14 18 14 17 8 -13 -3 -18 -2
-34 4 -38 7 -4 11 4 11 19 0 47 16 27 17 -21 2 -89 2 -90 13 -73 7 11 9 9 8
-10 -1 -14 -6 -31 -11 -37 -6 -9 -4 -15 8 -19 13 -5 14 -9 4 -15 -10 -6 -10
-11 -1 -22 7 -7 9 -16 6 -20 -3 -3 -7 -30 -9 -61 -2 -31 -12 -73 -23 -94 -10
-20 -29 -59 -42 -86 -13 -26 -31 -50 -39 -53 -9 -2 -23 -8 -31 -12 -29 -14
-156 3 -180 24 -11 10 -33 19 -48 20 -21 0 -26 4 -24 20 4 30 64 169 77 180
10 8 30 54 27 62 -1 3 38 100 62 156 10 22 12 36 7 32 -6 -3 -11 -13 -11 -21
0 -8 -10 -14 -24 -14 -18 0 -25 -6 -28 -22 -5 -35 -32 -29 -36 7 -2 20 4 39
18 54 11 13 20 28 20 33 0 5 8 7 19 3 12 -3 21 0 25 10 3 9 2 13 -4 10 -6 -3
-10 -4 -10 0 0 3 12 10 26 15 14 6 23 14 19 19 -3 5 3 12 12 14 31 8 43 7 43
-3z m1119 -495 l0 -20 -9 20 c-5 11 -8 38 -8 60 l0 40 9 -40 c4 -22 8 -49 8
-60z m-402 -351 c10 -10 8 -17 -13 -33 -25 -20 -80 -30 -72 -13 31 66 53 77
85 46z m-783 -31 c8 -21 6 -23 -40 -30 l-38 -6 24 30 c26 31 44 33 54 6z
m1091 -169 c-8 -6 -12 -14 -9 -17 3 -3 1 -15 -6 -26 -7 -14 -7 -21 0 -21 5 0
10 6 10 14 0 8 5 18 12 22 6 4 9 3 6 -2 -22 -39 -34 -99 -18 -89 13 8 13 -16
0 -49 -16 -42 -36 -32 -35 17 0 23 5 45 10 49 6 5 5 8 -3 8 -16 0 -6 68 14 91
8 8 14 22 14 30 0 12 2 11 10 -1 7 -10 5 -18 -5 -26z m176 -37 c12 -22 12 -22
-10 -3 -11 11 -21 23 -21 28 0 14 19 -1 31 -25z m-14 -77 c36 -39 43 -56 15
-41 -28 15 -73 64 -83 89 -15 40 -10 46 13 16 12 -16 37 -45 55 -64z m-174
-110 c-3 -11 -7 -20 -9 -20 -2 0 -4 9 -4 20 0 11 4 20 9 20 5 0 7 -9 4 -20z
m-1909 -25 c-4 -8 -10 -15 -15 -15 -4 0 -6 7 -3 15 4 8 10 15 15 15 4 0 6 -7
3 -15z m2216 -100 c0 -19 -4 -35 -10 -35 -5 0 -10 16 -10 35 0 19 5 35 10 35
6 0 10 -16 10 -35z m-283 -37 c-3 -7 -5 -2 -5 12 0 14 2 19 5 13 2 -7 2 -19 0
-25z m-727 -378 c0 -5 -4 -10 -10 -10 -5 0 -10 5 -10 10 0 6 5 10 10 10 6 0
10 -4 10 -10z m790 -430 c0 -26 -21 -80 -31 -80 -10 0 -12 63 -3 98 5 18 9 20
20 11 8 -6 14 -19 14 -29z m221 -53 c-8 -8 -11 -7 -11 5 0 9 -3 25 -6 35 -5
13 -1 11 11 -5 13 -18 14 -27 6 -35z"/>
<path d="M1334 2138 l-19 -23 25 20 c14 11 27 21 29 22 2 2 0 3 -6 3 -5 0 -18
-10 -29 -22z"/>
<path d="M1283 2102 c-13 -15 -23 -31 -23 -35 0 -5 12 6 26 23 15 17 25 33 23
35 -2 2 -14 -9 -26 -23z"/>
<path d="M2812 1798 c-15 -19 -14 -439 1 -455 2 -2 7 47 11 108 4 61 11 121
16 133 4 12 7 67 7 121 -2 97 -11 121 -35 93z"/>
<path d="M2508 1639 c3 -63 0 -104 -7 -120 -11 -22 -11 -23 3 -5 23 29 30 114
13 171 l-14 50 5 -96z"/>
<path d="M1390 1232 c0 -5 -15 -26 -34 -49 l-35 -40 25 -69 c14 -38 37 -81 51
-96 14 -14 25 -30 25 -35 1 -21 19 -53 36 -62 13 -7 33 -6 67 4 61 19 62 19
70 -5 9 -30 19 -24 32 18 25 81 27 111 7 118 -26 10 -125 83 -146 108 -10 12
-18 37 -18 57 0 19 -5 40 -12 47 -13 13 -68 17 -68 4z m62 -71 c14 -26 14 -32
1 -50 -20 -30 -73 -26 -73 6 0 33 21 73 39 73 9 0 23 -13 33 -29z"/>
<path d="M2430 845 c0 -5 5 -17 10 -25 5 -8 10 -10 10 -5 0 6 -5 17 -10 25 -5
8 -10 11 -10 5z"/>
<path d="M1707 744 c-4 -4 -7 -14 -7 -23 0 -11 3 -12 11 -4 6 6 10 16 7 23 -2
6 -7 8 -11 4z"/>
<path d="M1675 720 c3 -5 8 -10 11 -10 2 0 4 5 4 10 0 6 -5 10 -11 10 -5 0 -7
-4 -4 -10z"/>
<path d="M2915 358 c-8 -10 -21 -18 -29 -18 -28 0 -37 -118 -11 -140 8 -7 15
-18 15 -25 0 -8 12 -23 26 -34 28 -22 75 -26 147 -15 l37 7 0 103 c0 81 -3
104 -14 104 -7 0 -25 9 -39 20 -33 26 -109 24 -132 -2z"/>
</g>
</svg>
