<?xml version="1.0" standalone="no"?>
<!DOCTYPE svg PUBLIC "-//W3C//DTD SVG 20010904//EN"
 "http://www.w3.org/TR/2001/REC-SVG-20010904/DTD/svg10.dtd">
<svg version="1.0" xmlns="http://www.w3.org/2000/svg"
 width="696.000000pt" height="696.000000pt" viewBox="0 0 696.000000 696.000000"
 preserveAspectRatio="xMidYMid meet">

<g transform="translate(0.000000,696.000000) scale(0.100000,-0.100000)"
fill="#000000" stroke="none">
<path d="M2589 6920 c-24 -22 -47 -40 -51 -40 -5 0 -8 -5 -8 -12 0 -10 -50
-62 -96 -99 -10 -8 -37 -35 -59 -60 -35 -39 -113 -114 -246 -234 -20 -18 -46
-36 -58 -40 -11 -3 -21 -10 -21 -15 0 -4 -34 -41 -76 -81 -73 -71 -100 -114
-144 -226 -16 -41 -95 -127 -109 -119 -6 4 -11 3 -11 -2 0 -8 -7 -18 -63 -82
-12 -14 -30 -37 -39 -52 -10 -15 -37 -47 -60 -71 -129 -134 -176 -204 -199
-297 -7 -30 -18 -58 -23 -61 -5 -4 -6 -15 -2 -25 4 -11 16 -57 26 -104 11 -47
32 -121 48 -165 32 -87 51 -225 46 -338 -1 -37 1 -65 6 -62 25 16 22 -103 -4
-154 -19 -36 -44 -56 -96 -80 -25 -11 -41 -21 -36 -21 16 0 91 23 101 32 20
18 24 5 22 -77 -1 -61 1 -84 10 -81 16 7 22 -78 9 -141 -9 -47 -8 -57 11 -90
22 -37 23 -38 85 -39 43 -1 76 4 105 17 54 24 79 24 86 0 5 -22 -2 -36 -23
-44 -10 -4 -8 -6 7 -6 12 -1 24 -5 27 -10 3 -5 22 -9 42 -9 25 0 32 3 23 9
-19 12 59 0 93 -14 15 -6 29 -19 31 -29 3 -12 11 -16 21 -12 9 3 16 1 16 -5 0
-23 -30 -70 -47 -75 -20 -6 -103 0 -133 9 -14 4 -20 2 -20 -9 0 -24 14 -27
130 -28 122 -1 119 1 99 -72 -10 -35 -9 -41 9 -55 11 -9 24 -25 30 -36 10 -19
11 -19 16 5 3 14 7 83 9 154 3 156 9 166 79 118 25 -17 48 -28 51 -25 4 3 12
1 19 -4 7 -6 29 -14 48 -18 104 -20 137 -55 72 -76 -47 -15 -102 -48 -128 -75
-18 -19 -22 -38 -25 -106 l-4 -83 83 -2 c59 -1 86 3 96 13 21 20 29 17 23 -8
-4 -14 0 -26 11 -34 19 -15 112 -19 112 -5 0 5 11 12 25 15 34 9 32 26 -3 26
-30 0 -80 35 -69 47 4 3 0 14 -9 24 -18 20 -11 39 13 39 9 0 27 10 40 21 22
21 23 21 28 3 4 -10 15 -37 25 -60 10 -23 17 -57 15 -77 -3 -35 -2 -36 21 -26
34 12 47 11 38 -3 -4 -7 2 -5 13 4 24 22 33 23 33 3 0 -8 -4 -15 -10 -15 -19
0 2 -29 23 -32 15 -2 21 -9 19 -20 -4 -22 29 -24 61 -4 12 8 45 18 72 22 33 4
61 16 82 34 17 15 50 36 72 46 23 10 41 22 41 27 0 4 5 5 12 1 17 -11 4 68
-21 119 -12 24 -21 59 -21 79 0 42 -22 67 -44 49 -18 -15 -33 9 -40 62 -2 20
-9 44 -15 54 -9 17 -10 17 -16 1 -4 -10 -11 -18 -16 -18 -5 0 -9 8 -9 18 0 14
-2 15 -10 2 -8 -13 -10 -12 -10 3 0 10 -8 17 -20 17 -11 0 -20 7 -20 15 0 17
-16 20 -26 4 -4 -7 -11 -2 -18 12 -12 26 -35 35 -111 45 -27 4 -42 9 -32 11
27 7 10 23 -24 23 -16 0 -47 9 -69 20 -30 16 -45 18 -65 10 -15 -6 -31 -10
-36 -10 -16 0 -10 18 9 23 9 3 0 5 -20 6 -30 1 -36 4 -31 17 4 12 -7 9 -47
-11 -47 -24 -56 -25 -79 -14 -43 22 -44 22 -36 9 6 -10 4 -12 -9 -7 -10 4 -20
7 -22 7 -2 0 -4 6 -4 14 0 9 -7 12 -19 9 -58 -15 -50 223 13 402 20 55 36 112
36 128 0 15 5 27 11 27 6 0 9 9 6 19 -3 14 16 41 67 95 39 42 77 76 83 76 6 0
17 16 23 35 13 41 46 75 70 75 16 0 36 8 110 44 l35 17 -67 -5 c-38 -3 -68 -2
-68 2 0 13 65 72 78 72 7 0 20 4 30 9 9 5 32 15 50 22 19 7 40 19 48 26 8 8
39 17 70 20 35 4 51 9 42 14 -9 6 -7 9 9 9 12 0 25 5 29 11 4 7 22 9 46 6 35
-5 92 13 108 33 3 3 25 6 49 7 24 0 46 6 50 12 4 6 15 9 24 6 9 -4 42 -1 74 6
32 7 63 14 70 14 7 0 18 8 25 17 15 21 78 36 78 19 0 -18 56 -13 95 9 54 30
117 42 155 28 21 -7 34 -7 39 -1 9 15 48 -2 63 -27 7 -11 21 -20 30 -20 10 0
18 -4 18 -9 0 -5 7 -11 15 -15 21 -8 19 -5 -20 39 -20 21 -34 40 -32 42 2 1
17 -4 33 -12 17 -8 41 -16 55 -17 13 -2 43 -20 66 -42 63 -57 139 -104 206
-127 75 -25 84 -19 15 11 -57 24 -160 94 -195 131 -30 33 -34 65 -8 62 33 -3
68 -10 110 -21 70 -18 176 -35 182 -28 4 3 -5 6 -18 7 -13 0 -18 3 -11 6 7 3
42 -9 78 -27 35 -17 69 -28 73 -25 13 8 52 -10 84 -39 28 -24 83 -43 94 -32
11 10 -19 36 -66 56 -42 18 -147 118 -136 129 7 7 75 -43 80 -60 5 -13 69 -49
90 -49 12 0 -78 79 -91 80 -14 0 -59 48 -52 55 9 9 112 -17 131 -33 9 -8 29
-17 43 -18 33 -4 157 -66 162 -81 2 -8 -6 -13 -21 -13 -30 0 -57 -9 -57 -20 0
-4 22 -10 48 -14 56 -7 66 -14 51 -33 -9 -10 -7 -13 8 -13 11 0 20 -7 20 -15
0 -8 -8 -15 -18 -15 -9 0 -19 -7 -22 -14 -5 -12 -13 -13 -37 -6 -21 6 -38 5
-49 -2 -15 -9 -29 -4 -77 25 -85 53 -100 46 -24 -10 75 -54 148 -75 236 -66
37 4 54 2 54 -6 0 -6 -7 -11 -15 -11 -7 0 -18 -7 -23 -16 -13 -23 -134 -36
-170 -19 -30 16 -121 32 -110 20 10 -11 137 -56 176 -62 24 -4 37 -13 45 -32
16 -37 15 -37 38 -12 14 15 30 21 47 19 29 -3 30 -11 22 -166 l-3 -54 -34 7
-34 6 3 -41 c1 -27 -3 -44 -12 -50 -11 -7 -8 -11 13 -19 24 -9 26 -14 17 -31
-6 -11 -8 -20 -5 -20 3 0 -7 -19 -23 -42 -54 -79 -50 -119 5 -60 15 15 23 22
19 15 -4 -7 2 -31 14 -55 15 -32 17 -44 8 -50 -8 -5 -1 -8 18 -8 48 0 144 -37
170 -65 13 -14 29 -25 37 -25 8 0 20 -7 27 -15 10 -12 9 -16 -4 -21 -9 -3 -16
-11 -16 -16 0 -10 17 -8 54 7 15 7 17 5 11 -13 -8 -26 -17 -25 180 -22 98 1
159 7 175 15 32 17 105 11 126 -9 8 -9 24 -16 35 -16 10 0 24 -9 31 -20 7 -11
20 -20 29 -20 9 0 22 -7 30 -16 7 -8 29 -24 50 -34 73 -38 139 -128 139 -191
0 -15 5 -31 10 -34 6 -3 10 -32 10 -63 0 -31 7 -79 15 -106 8 -27 15 -71 15
-97 0 -36 10 -67 43 -131 23 -46 46 -86 50 -89 4 -3 5 -24 1 -47 -4 -29 0 -62
16 -113 12 -39 19 -82 16 -95 -3 -12 -1 -26 5 -30 16 -9 3 -121 -17 -152 -8
-13 -13 -30 -10 -38 3 -9 -3 -35 -14 -60 -12 -25 -18 -49 -15 -54 4 -6 3 -19
0 -31 -5 -16 -9 -18 -21 -8 -8 6 -18 9 -21 5 -10 -10 11 -41 27 -41 7 0 14 -9
16 -20 2 -11 10 -25 20 -32 12 -9 15 -19 9 -40 -14 -58 -17 -101 -6 -107 6 -4
15 4 21 18 5 14 13 26 17 26 11 0 3 -153 -8 -164 -5 -6 -9 -27 -9 -49 0 -21
-4 -46 -10 -56 -6 -13 -5 -24 4 -36 11 -16 14 -10 19 46 4 35 16 88 27 118 12
30 19 63 17 72 -3 10 1 26 9 36 7 10 14 32 14 49 0 16 5 35 10 40 6 6 12 32
15 58 9 88 25 180 40 226 8 25 17 62 20 83 3 21 10 35 15 32 6 -3 7 1 4 10 -4
8 4 30 18 48 13 17 29 44 36 58 13 24 17 25 68 21 67 -6 94 13 94 64 0 34 20
54 54 54 25 0 19 -36 -9 -54 -37 -24 -31 -34 21 -33 44 2 46 1 69 -43 13 -25
29 -51 35 -58 6 -7 20 -40 31 -73 15 -46 18 -67 10 -94 -5 -20 -6 -37 0 -40
14 -10 63 21 102 64 40 44 47 82 22 114 -9 13 -12 35 -8 71 5 44 2 57 -21 90
-14 21 -26 45 -26 52 0 8 -7 14 -15 14 -8 0 -12 6 -9 14 4 10 -7 15 -40 20
-25 4 -46 11 -46 16 0 5 -9 12 -20 15 -26 8 -25 19 2 50 18 20 31 25 72 25 78
0 100 16 107 75 13 96 21 124 35 118 22 -8 51 -65 58 -113 7 -46 20 -95 39
-140 25 -63 40 -154 44 -264 5 -131 -4 -187 -42 -269 -14 -31 -25 -59 -25 -62
0 -19 -113 -230 -132 -249 -13 -12 -42 -43 -65 -69 -34 -39 -56 -53 -115 -74
-66 -23 -82 -25 -173 -19 -108 6 -145 1 -145 -19 0 -7 -3 -15 -8 -17 -4 -1
-18 -23 -31 -48 -14 -25 -30 -49 -38 -53 -7 -4 -13 -24 -13 -44 0 -35 0 -36
-35 -30 -19 3 -35 2 -35 -4 0 -5 -5 -9 -11 -9 -6 0 -8 8 -4 19 7 24 -22 51
-31 27 -3 -9 -3 -24 2 -34 4 -9 6 -23 5 -30 -3 -18 26 -15 37 4 8 14 12 14 30
3 32 -20 28 -43 -5 -35 -16 3 -22 3 -15 0 6 -3 10 -10 6 -15 -3 -5 1 -9 10 -9
11 0 9 -10 -10 -46 -28 -52 -31 -82 -9 -90 23 -9 18 -24 -9 -24 -26 0 -37 -24
-25 -55 11 -29 11 -85 -1 -85 -5 0 -10 7 -10 15 0 8 -7 15 -15 15 -10 0 -15
-10 -15 -29 0 -16 -6 -31 -12 -34 -10 -3 -10 -8 1 -21 18 -22 -1 -71 -24 -62
-19 7 -19 1 1 -29 15 -23 15 -28 -5 -70 -12 -25 -25 -45 -30 -45 -14 0 -19 23
-9 43 14 28 -6 19 -30 -13 -24 -32 -27 -51 -12 -66 8 -8 6 -15 -6 -25 -13 -11
-18 -11 -21 -1 -7 18 -55 14 -83 -8 -14 -11 -31 -20 -37 -20 -18 0 -16 -20 1
-20 7 0 25 9 40 21 18 14 26 16 26 7 -1 -18 -25 -48 -39 -48 -15 0 -14 -27 2
-33 15 -5 -19 -47 -40 -47 -20 0 -16 18 7 25 31 10 24 21 -22 35 -40 12 -41
14 -18 20 25 6 25 6 4 18 -24 13 -46 -1 -37 -24 3 -8 0 -14 -6 -14 -6 0 -11
-4 -11 -10 0 -5 7 -10 15 -10 21 0 19 -9 -7 -39 -13 -14 -16 -20 -8 -14 36 33
42 -3 5 -37 -20 -19 -25 -20 -25 -7 0 14 -6 13 -50 -5 -27 -11 -50 -27 -50
-34 0 -18 56 -19 63 -1 3 6 6 8 6 2 2 -23 -52 -61 -70 -49 -13 8 -61 -24 -54
-36 7 -12 -56 -70 -68 -63 -5 3 -6 11 -3 19 7 19 -18 18 -34 -1 -7 -8 -19 -15
-27 -15 -8 0 -11 -5 -8 -10 5 -8 11 -7 20 0 8 7 19 9 24 5 6 -3 -6 -21 -25
-39 -36 -34 -99 -53 -118 -35 -6 5 -16 9 -23 9 -16 0 16 -34 42 -43 24 -10 22
-11 -64 -40 -64 -21 -71 -26 -55 -35 17 -10 15 -11 -14 -12 -20 0 -31 -4 -27
-10 10 -15 -21 -23 -44 -11 -13 7 -22 8 -26 1 -3 -5 -33 -10 -65 -10 -54 0
-87 -13 -58 -22 23 -8 -4 -28 -38 -28 -26 0 -37 5 -42 20 -7 20 -9 19 -42 -10
-18 -16 -44 -30 -56 -30 -13 0 -26 -5 -29 -10 -3 -6 -30 -10 -58 -11 -38 0
-47 -3 -32 -9 17 -7 14 -9 -13 -9 -29 -1 -32 2 -27 19 10 32 -3 43 -30 26 -28
-18 -95 -11 -95 11 0 23 -30 27 -45 7 -13 -18 -14 -18 -20 -1 -8 20 -31 23
-38 5 -3 -10 -9 -10 -26 -1 -25 16 -31 16 -31 3 0 -5 7 -10 15 -10 18 0 20
-21 3 -38 -6 -6 -9 -15 -5 -19 4 -3 14 2 21 13 8 10 18 15 23 11 4 -5 -4 -18
-20 -29 -15 -11 -27 -26 -27 -34 0 -17 -17 -19 -22 -3 -3 9 -15 9 -43 3 -30
-7 -41 -15 -43 -32 -2 -12 -8 -20 -13 -16 -6 3 -21 3 -35 0 -22 -6 -25 -11
-22 -43 2 -22 -2 -38 -10 -40 -6 -3 -12 2 -12 11 0 23 -12 26 -61 15 -47 -11
-80 -16 -116 -18 -13 -1 -23 -7 -23 -16 0 -8 -7 -15 -15 -15 -8 0 -15 -4 -15
-10 0 -5 -7 -10 -16 -10 -13 0 -15 -6 -9 -27 6 -27 6 -27 -14 -8 -21 18 -22
18 -51 -4 -24 -17 -34 -19 -50 -11 -11 6 -20 15 -20 21 0 6 -5 7 -11 3 -6 -3
-15 0 -20 7 -6 10 -10 9 -15 -6 -13 -36 -50 -49 -41 -15 6 24 -5 26 -23 5 -15
-18 -28 -11 -41 22 -8 21 -12 23 -24 13 -8 -7 -13 -16 -10 -20 3 -5 1 -11 -4
-15 -5 -3 -14 2 -19 10 -12 22 -41 8 -49 -23 -6 -25 -6 -25 -14 -4 -5 12 -16
23 -26 23 -67 5 -82 14 -83 47 0 20 -41 10 -54 -13 -21 -39 -45 -46 -53 -15
-6 24 -12 25 -41 4 -24 -17 -29 -6 -11 27 9 18 7 20 -17 17 -15 -2 -29 2 -31
9 -3 7 3 9 16 6 15 -4 21 -1 21 12 0 11 -5 15 -15 11 -8 -3 -22 -9 -31 -12
-10 -5 -17 0 -21 14 -4 19 -7 19 -20 7 -8 -8 -11 -19 -8 -25 3 -5 -1 -10 -9
-10 -9 0 -16 7 -16 15 0 9 -11 21 -25 27 -16 7 -25 19 -24 32 4 47 0 56 -30
56 -25 0 -29 4 -35 40 -5 32 -10 40 -28 40 -11 0 -26 8 -33 17 -11 14 -10 20
4 31 10 9 7 9 -10 -1 -26 -16 -26 -15 -39 26 -7 23 -14 64 -15 92 -2 44 -5 50
-28 56 -14 4 -28 4 -31 1 -3 -3 -6 10 -7 29 0 19 -2 41 -4 49 -6 27 -45 109
-55 115 -6 4 -16 21 -24 38 -15 36 -53 80 -77 89 -11 4 -14 15 -11 37 4 27 0
32 -34 48 -26 12 -39 25 -40 38 -1 33 -23 75 -39 75 -8 0 -15 -7 -15 -15 0
-17 -16 -20 -25 -5 -3 6 -12 10 -18 10 -7 0 -4 -5 6 -11 9 -6 15 -15 12 -20
-6 -9 48 -113 72 -137 7 -7 13 -22 13 -32 0 -11 12 -32 27 -47 16 -15 27 -31
26 -35 -2 -4 1 -8 6 -8 5 0 7 -10 4 -22 -4 -23 -4 -23 12 -3 9 11 18 19 20 18
13 -8 18 -2 7 9 -7 7 -12 17 -12 23 0 5 7 2 14 -8 16 -21 9 -60 -9 -53 -9 3
-13 -6 -12 -31 1 -32 3 -34 29 -31 15 3 28 1 28 -4 0 -4 -7 -8 -15 -8 -9 0
-15 -9 -15 -21 0 -13 5 -19 13 -16 9 3 13 -8 13 -36 1 -25 7 -43 18 -49 9 -5
16 -17 16 -27 0 -9 7 -26 15 -37 25 -33 18 -69 -17 -97 -18 -13 -51 -42 -72
-63 -24 -23 -41 -34 -44 -26 -5 17 -38 15 -70 -5 -15 -10 -29 -20 -32 -24 -3
-3 -18 -12 -35 -21 -67 -34 -95 -54 -95 -68 0 -8 -7 -24 -15 -34 -8 -11 -15
-26 -15 -34 0 -7 -17 -34 -38 -60 -48 -58 -84 -154 -72 -188 6 -15 6 -24 0
-24 -6 0 -10 5 -10 10 0 6 -8 10 -17 10 -16 0 -16 2 -3 11 13 9 13 10 0 6 -8
-2 -16 -17 -18 -35 -2 -21 -10 -33 -25 -38 -12 -4 -23 -2 -25 5 -2 6 -9 11
-16 11 -6 0 -20 10 -30 22 -14 16 -15 20 -3 15 16 -6 47 21 47 41 0 7 5 12 10
12 6 0 10 5 10 12 0 9 -3 9 -12 0 -7 -7 -24 -12 -38 -12 -14 0 -31 -5 -36 -10
-7 -7 -17 -4 -30 11 l-19 22 28 -5 c31 -6 43 4 24 21 -11 9 -8 22 15 70 16 33
33 63 38 66 23 14 6 21 -55 21 -44 0 -66 -4 -69 -13 -3 -7 -21 -13 -40 -13
-19 0 -54 -8 -78 -19 -24 -10 -51 -17 -60 -15 -10 1 -20 -2 -24 -7 -10 -17
-46 -9 -66 14 -11 12 -17 17 -14 11 7 -13 -24 -24 -70 -24 -32 0 -82 -38 -104
-80 -8 -15 -19 -21 -34 -18 -13 3 -23 0 -23 -6 1 -33 -5 -44 -27 -50 -32 -8
-86 -65 -86 -91 0 -32 -60 -51 -295 -94 -22 -4 -49 -12 -60 -19 -16 -9 -5 -10
52 -5 88 7 108 1 93 -27 -14 -26 -3 -26 18 0 10 12 38 24 66 29 58 11 82 5 66
-14 -9 -10 -6 -16 9 -25 26 -13 27 -35 4 -49 -15 -9 -15 -12 -4 -20 18 -12 7
-44 -31 -87 -24 -27 -28 -38 -19 -47 9 -9 23 0 61 38 27 28 49 56 50 63 0 6 4
12 9 12 5 0 18 24 30 53 12 28 35 66 51 84 35 37 36 43 13 43 -12 0 -14 3 -7
10 12 12 143 28 272 33 53 2 98 9 104 15 9 9 9 12 0 12 -7 0 -12 7 -12 15 0
17 16 20 25 6 8 -13 64 -7 95 9 40 22 94 28 108 14 17 -19 15 -24 -12 -24 -16
0 -26 -8 -31 -22 -7 -22 -8 -22 -12 5 -3 20 -9 27 -20 23 -8 -3 -21 -6 -29 -6
-8 0 -20 -14 -25 -30 -9 -24 -17 -30 -37 -29 l-27 1 25 8 c14 4 18 8 10 9 -9
1 -33 -8 -54 -18 -25 -13 -49 -18 -74 -15 -35 5 -36 5 -18 -10 19 -16 19 -16
-3 -16 -13 0 -34 -9 -48 -20 -14 -11 -20 -20 -12 -20 8 0 5 -5 -7 -14 -10 -8
-16 -18 -11 -22 4 -4 -1 -16 -10 -27 -17 -18 -17 -19 1 -33 19 -13 18 -14 -11
-20 -28 -6 -31 -9 -28 -40 1 -23 -2 -34 -11 -34 -8 0 -14 -4 -14 -9 0 -5 -9
-12 -19 -16 -10 -3 -21 -15 -24 -25 -5 -19 0 -20 93 -20 89 0 102 2 138 26 23
15 46 40 53 55 6 16 18 29 25 29 8 0 14 5 14 11 0 6 20 31 45 55 39 39 48 43
66 34 11 -7 27 -9 34 -6 20 7 42 -43 39 -89 -4 -40 -32 -74 -64 -75 -8 0 -26
-9 -40 -20 -19 -15 -21 -20 -8 -20 9 0 18 6 21 13 4 9 7 9 18 -1 9 -8 50 -12
131 -12 l117 0 36 52 c19 29 35 58 35 64 0 6 7 17 15 24 8 6 30 40 50 73 66
115 79 131 113 141 12 4 22 12 22 19 0 8 -3 8 -12 -1 -24 -24 -29 -11 -6 17
l23 29 22 -25 c20 -22 21 -27 7 -40 -8 -8 -21 -12 -30 -9 -8 3 -12 1 -9 -4 3
-5 -2 -22 -12 -36 -18 -27 -17 -28 5 -22 18 5 22 3 18 -9 -3 -8 -6 -19 -6 -24
0 -5 -9 -9 -21 -9 -11 0 -18 -4 -14 -9 10 -18 -7 -91 -22 -91 -17 0 -73 -59
-73 -78 0 -8 12 -2 30 15 17 15 30 34 30 42 0 8 3 12 6 8 11 -10 -7 -46 -37
-77 -17 -16 -28 -34 -25 -39 8 -13 89 -12 98 2 6 9 8 9 8 0 0 -10 53 -13 220
-13 121 0 220 1 220 3 0 1 7 51 15 112 8 61 17 155 21 210 7 127 11 145 30
145 18 0 86 -69 79 -80 -2 -3 7 -18 20 -32 18 -19 37 -27 83 -32 50 -6 61 -11
70 -31 6 -14 24 -27 39 -31 46 -11 103 -44 139 -79 18 -18 43 -36 56 -40 13
-4 32 -15 42 -24 13 -11 20 -13 23 -4 5 13 43 -14 43 -30 0 -5 -6 -4 -14 2 -8
7 -17 8 -20 3 -7 -12 38 -32 74 -32 18 0 30 -5 30 -13 0 -15 51 -47 74 -47 9
0 16 5 16 10 0 13 37 13 45 0 4 -7 235 -10 659 -10 569 0 655 2 666 15 16 19
30 19 30 0 0 -8 5 -15 10 -15 6 0 10 8 10 18 0 11 9 27 20 37 11 10 20 24 20
32 0 7 7 13 15 13 8 0 15 7 15 15 0 9 -6 12 -15 9 -8 -4 -15 -11 -15 -16 0 -6
-7 -8 -15 -4 -8 3 -15 1 -15 -4 0 -5 -10 -12 -22 -16 -13 -3 -36 -16 -52 -27
-27 -19 -28 -19 -25 -1 2 10 21 27 42 37 45 23 47 33 7 41 -27 5 -30 8 -20 26
8 15 21 20 49 20 33 0 40 4 49 28 6 15 12 38 14 52 2 20 8 25 31 23 17 -1 27
3 27 12 0 7 11 26 24 42 13 15 22 36 21 45 -2 9 3 19 11 22 8 3 14 13 14 22 0
16 -1 16 -18 1 -10 -10 -32 -15 -55 -14 -20 1 -37 3 -37 3 0 9 82 54 99 54 36
0 81 37 81 67 0 25 -1 25 -18 10 -26 -24 -29 -22 -30 23 -2 33 3 46 28 68 48
44 58 52 73 52 8 0 25 14 38 32 40 54 56 67 98 78 43 11 49 18 29 38 -9 9 -4
28 24 84 20 40 39 81 42 91 3 10 10 15 16 12 7 -4 7 -12 0 -25 -13 -25 -13
-30 5 -30 8 0 15 9 15 20 0 11 4 20 10 20 5 0 13 18 16 40 4 22 11 43 15 46 5
3 9 14 9 24 0 13 5 17 15 14 11 -5 13 -2 9 10 -4 10 -1 16 9 16 8 0 21 14 29
30 13 31 33 39 41 18 2 -7 8 -10 12 -6 4 4 -2 16 -13 28 -22 24 -19 50 4 50
12 0 12 4 4 20 -8 15 -8 20 3 20 19 0 38 46 31 74 -3 13 0 27 9 34 11 10 16 6
26 -15 12 -27 13 -27 27 -8 8 10 14 22 14 27 0 4 7 8 15 8 8 0 16 6 16 13 1 6
3 19 4 27 1 8 3 24 4 35 2 18 3 18 9 2 6 -14 10 -12 26 17 36 68 76 43 76 -47
0 -23 8 -51 16 -62 14 -19 16 -19 25 -2 16 27 29 20 23 -13 -4 -16 -3 -37 0
-46 6 -16 8 -15 20 2 28 38 30 2 4 -48 -30 -56 -29 -71 1 -44 14 13 21 14 26
6 4 -7 2 -15 -4 -19 -16 -10 -51 -81 -51 -103 0 -10 7 -18 15 -18 8 0 15 5 15
11 0 6 7 17 15 26 9 8 14 20 12 26 -2 7 5 20 15 31 10 11 18 34 18 50 0 50 12
61 47 43 33 -17 75 -12 131 17 27 14 32 22 32 51 0 32 12 49 35 50 17 1 75 40
75 50 0 6 14 21 30 35 17 14 30 33 30 42 0 10 7 18 15 18 7 0 18 7 23 16 27
48 278 301 294 296 4 -1 8 1136 8 2528 l0 2530 -2163 0 -2164 0 -44 -40z
m-945 -1209 c-13 -27 -31 -51 -39 -55 -8 -3 -15 -10 -15 -16 0 -6 5 -8 10 -5
14 9 12 -6 -6 -56 -18 -48 -36 -129 -59 -259 -8 -50 -20 -89 -30 -96 -8 -6
-15 -19 -15 -29 0 -14 -3 -15 -15 -5 -8 7 -15 18 -15 25 0 7 -9 32 -20 57 -17
39 -18 54 -10 129 4 47 15 102 23 122 15 34 117 168 165 215 40 39 52 27 26
-27z m2321 -165 c19 -8 35 -20 35 -25 0 -16 -8 -14 -46 10 -51 31 -46 38 11
15z m100 -6 c-3 -5 -10 -10 -16 -10 -5 0 -9 5 -9 10 0 6 7 10 16 10 8 0 12 -4
9 -10z m138 -9 c4 -1 7 -5 7 -10 0 -5 -10 -7 -22 -3 -21 5 -22 4 -9 -11 7 -9
19 -17 26 -17 7 0 18 -7 25 -15 26 -32 -34 -5 -62 28 -24 27 -23 38 5 33 12
-3 25 -5 30 -5z m-2536 -518 c-3 -3 -11 -2 -17 2 -8 5 -7 11 2 22 12 15 13 14
16 -1 2 -10 1 -20 -1 -23z m733 16 c0 -5 -9 -9 -19 -9 -11 0 -37 -15 -57 -34
-31 -29 -39 -32 -51 -21 -18 18 -16 25 6 25 10 0 21 7 25 15 9 25 96 46 96 24z
m-705 -151 c-2 -56 1 -112 6 -125 10 -26 0 -29 -33 -12 -15 8 -17 13 -8 19 17
11 5 61 -14 54 -9 -3 -15 6 -20 27 -9 46 -7 79 4 79 6 0 10 -7 10 -16 0 -8 5
-12 10 -9 6 3 10 20 10 36 0 18 4 28 10 24 6 -3 13 1 16 9 3 9 7 16 9 16 1 0
1 -46 0 -102z m3125 -209 c0 -5 -7 -6 -15 -3 -8 4 -15 13 -15 21 0 13 3 13 15
3 8 -7 15 -16 15 -21z m-23 -23 c19 -21 19 -25 6 -30 -9 -4 -17 -5 -17 -4 -13
23 -24 58 -18 58 5 0 18 -11 29 -24z m-3077 -140 c0 6 7 11 15 11 22 0 18 -10
-8 -23 -30 -14 -51 -7 -34 11 9 9 14 10 19 1 5 -7 8 -7 8 0z m190 -5 c0 -5
-13 -20 -29 -33 -31 -24 -81 -92 -81 -109 0 -6 -4 -7 -10 -4 -5 3 -10 3 -10
-2 0 -4 -30 -6 -67 -5 -72 4 -102 22 -55 33 26 7 26 7 5 14 -27 9 -37 31 -16
39 12 5 13 9 3 21 -15 19 2 20 29 3 15 -9 24 -8 45 5 29 19 63 22 68 6 2 -6
22 0 48 15 47 27 70 32 70 17z m101 -85 c-10 -11 -9 -15 4 -18 22 -4 -49 -90
-95 -114 -19 -10 -37 -22 -40 -25 -11 -14 -50 -29 -74 -29 -23 0 -86 -47 -86
-64 0 -11 35 -6 54 9 13 10 44 15 94 15 l75 0 -27 -25 c-14 -13 -26 -28 -26
-34 0 -11 -39 -26 -47 -17 -3 3 -13 -3 -22 -14 -20 -22 -61 -36 -61 -20 0 6 5
8 10 5 6 -3 10 1 10 9 0 21 -52 55 -89 58 -24 2 -31 7 -31 24 0 11 -9 29 -19
38 -10 10 -22 33 -25 52 -4 19 -12 34 -18 34 -7 0 -6 5 2 15 7 8 17 12 23 8 5
-3 43 -5 82 -4 43 1 76 -2 80 -8 10 -18 23 -13 62 23 21 18 54 38 74 45 20 6
45 21 54 31 21 24 55 29 36 6z m-422 -223 c1 -42 -13 -63 -30 -46 -4 4 -10 30
-11 56 -2 26 -6 47 -10 47 -13 0 -9 35 4 48 10 10 16 5 30 -25 9 -21 17 -57
17 -80z m1206 -173 c3 -5 1 -10 -4 -10 -6 0 -11 5 -11 10 0 6 2 10 4 10 3 0 8
-4 11 -10z m115 -50 c0 -5 -2 -10 -4 -10 -3 0 -8 5 -11 10 -3 6 -1 10 4 10 6
0 11 -4 11 -10z m-180 -374 c0 -2 -7 -9 -15 -16 -12 -10 -15 -10 -15 4 0 9 7
16 15 16 8 0 15 -2 15 -4z m3431 -1910 c-8 -14 -11 -35 -7 -51 6 -21 3 -28
-13 -32 -13 -3 -18 -10 -14 -17 11 -17 12 -65 2 -72 -9 -5 -26 53 -20 71 2 6
5 30 8 55 2 25 9 49 14 55 5 5 9 18 9 29 0 19 1 19 17 3 14 -14 15 -20 4 -41z
m-241 -66 c0 -5 -5 -10 -11 -10 -5 0 -7 5 -4 10 3 6 8 10 11 10 2 0 4 -4 4
-10z m170 -9 c0 -5 -7 -11 -15 -15 -9 -3 -15 0 -15 9 0 8 7 15 15 15 8 0 15
-4 15 -9z m128 -24 c2 -10 -3 -17 -12 -17 -10 0 -16 9 -16 21 0 24 23 21 28
-4z m-3726 -57 c12 0 18 -3 14 -7 -4 -5 -21 -8 -37 -8 -20 0 -28 4 -24 13 3 8
5 19 5 25 0 7 5 4 11 -5 5 -10 20 -18 31 -18z m3384 -7 c-7 -7 -26 7 -26 19 0
6 6 6 15 -2 9 -7 13 -15 11 -17z m274 -46 c0 -14 -20 -37 -32 -37 -12 0 -10
24 4 38 16 16 28 15 28 -1z m-3600 -74 c0 -3 -7 0 -15 7 -8 7 -15 22 -15 34 0
18 2 17 15 -8 8 -15 15 -31 15 -33z m2873 -220 c-7 -2 -19 -2 -25 0 -7 3 -2 5
12 5 14 0 19 -2 13 -5z m297 -31 c0 -5 -6 -17 -14 -28 -19 -25 -31 -12 -14 15
13 21 28 28 28 13z m-60 -102 c0 -5 -5 -10 -11 -10 -5 0 -7 5 -4 10 3 6 8 10
11 10 2 0 4 -4 4 -10z m-886 -166 c10 -2 21 -6 24 -9 12 -12 -9 -16 -56 -9
-38 5 -49 10 -45 21 4 10 14 12 32 8 14 -4 34 -9 45 -11z m-359 -24 c3 -5 -1
-10 -9 -10 -9 0 -16 5 -16 10 0 6 4 10 9 10 6 0 13 -4 16 -10z m270 1 c34 -7
35 -9 10 -9 -16 0 -43 4 -60 8 -42 11 -1 11 50 1z m795 -1 c0 -5 -4 -10 -10
-10 -5 0 -10 5 -10 10 0 6 5 10 10 10 6 0 10 -4 10 -10z m-42 -90 c-18 -33
-38 -60 -45 -60 -20 0 -16 14 12 40 14 13 25 27 25 32 0 7 31 48 37 48 1 0
-12 -27 -29 -60z m-3605 -173 c-9 -26 -24 -52 -34 -58 -11 -5 -19 -16 -19 -24
0 -8 -6 -15 -14 -15 -8 0 -17 -6 -20 -12 -3 -7 -3 -2 0 11 4 14 15 34 26 45
11 12 27 35 35 51 18 34 34 57 39 53 1 -2 -4 -25 -13 -51z m37 9 c0 -3 -4 -8
-10 -11 -5 -3 -10 -1 -10 4 0 6 5 11 10 11 6 0 10 -2 10 -4z m1600 -6 c0 -5
-4 -10 -10 -10 -5 0 -10 5 -10 10 0 6 5 10 10 10 6 0 10 -4 10 -10z m-1832
-51 c-11 -7 -11 -9 1 -9 8 0 23 7 33 17 31 28 30 8 -2 -35 -16 -23 -30 -47
-30 -52 0 -6 -7 -13 -15 -16 -8 -4 -15 -13 -15 -21 0 -10 8 -5 22 13 26 36 44
54 34 37 -4 -7 -2 -13 3 -13 6 0 11 7 11 15 0 8 2 15 4 15 2 0 12 3 21 6 15 6
15 4 1 -31 -9 -20 -14 -41 -11 -45 3 -5 -14 -20 -37 -34 -33 -18 -54 -23 -86
-20 -24 2 -48 7 -54 10 -7 5 -9 2 -6 -7 4 -10 -1 -15 -13 -16 -25 -2 -24 8 6
43 14 16 25 32 25 35 0 3 14 24 31 45 17 22 43 54 57 72 22 27 28 30 30 17 2
-10 -2 -21 -10 -26z m222 -14 c-7 -8 -17 -15 -22 -15 -6 0 -5 7 2 15 7 8 17
15 22 15 6 0 5 -7 -2 -15z m3440 -19 c0 -3 -4 -8 -10 -11 -5 -3 -10 -1 -10 4
0 6 5 11 10 11 6 0 10 -2 10 -4z m-3490 -36 c0 -5 -5 -10 -11 -10 -7 0 -18 -8
-25 -17 -7 -10 -15 -15 -19 -11 -7 6 33 48 47 48 4 0 8 -4 8 -10z m455 -10
c-3 -5 -11 -10 -16 -10 -6 0 -7 5 -4 10 3 6 11 10 16 10 6 0 7 -4 4 -10z m-68
-6 c-3 -3 -12 -4 -19 -1 -8 3 -5 6 6 6 11 1 17 -2 13 -5z m316 -26 c-8 -43 -8
-43 -32 -19 -14 14 -17 21 -7 21 7 0 19 7 26 15 18 22 20 19 13 -17z m-683 2
c0 -5 -5 -10 -11 -10 -5 0 -7 5 -4 10 3 6 8 10 11 10 2 0 4 -4 4 -10z m-112
-57 c-10 -2 -26 -2 -35 0 -10 3 -2 5 17 5 19 0 27 -2 18 -5z m796 -9 c3 -8 2
-12 -4 -9 -6 3 -10 10 -10 16 0 14 7 11 14 -7z m-480 -8 c12 4 15 2 10 -9 -3
-8 -15 -18 -27 -22 -14 -4 -17 -8 -9 -12 6 -2 12 -13 12 -24 0 -10 5 -19 10
-19 6 0 10 -4 10 -10 0 -5 -9 -10 -20 -10 -11 0 -23 -7 -26 -15 -5 -12 -10
-10 -25 8 -10 12 -18 16 -19 10 0 -7 -5 -13 -11 -13 -8 0 -8 5 1 15 7 8 10 22
6 30 -7 20 3 45 19 45 7 0 15 10 18 22 5 17 9 19 20 9 8 -6 22 -9 31 -5z m36
-47 c0 -5 -4 -9 -10 -9 -5 0 -10 7 -10 16 0 8 5 12 10 9 6 -3 10 -10 10 -16z
m-786 -18 c8 -13 -41 -23 -67 -14 -20 6 -20 7 8 14 44 10 53 10 59 0z m646
-21 c0 -5 -5 -10 -11 -10 -5 0 -7 5 -4 10 3 6 8 10 11 10 2 0 4 -4 4 -10z
m100 -155 c10 -12 10 -15 -4 -15 -9 0 -16 7 -16 15 0 8 2 15 4 15 2 0 9 -7 16
-15z m3015 -5 c3 -5 -3 -10 -15 -10 -11 0 -26 -5 -33 -10 -48 -40 -92 -70
-103 -70 -8 0 -14 -4 -14 -10 0 -5 -9 -10 -20 -10 -11 0 -20 5 -20 10 0 6 7
10 15 10 8 0 15 6 15 14 0 8 9 18 20 21 11 3 20 13 20 22 0 9 6 13 15 9 9 -3
26 -1 38 6 12 6 29 15 37 19 21 11 38 11 45 -1z m-299 -37 c-10 -10 -19 5 -10
18 6 11 8 11 12 0 2 -7 1 -15 -2 -18z"/>
<path d="M1785 4270 c-3 -5 -1 -10 4 -10 6 0 11 5 11 10 0 6 -2 10 -4 10 -3 0
-8 -4 -11 -10z"/>
<path d="M1560 4231 c0 -25 6 -27 13 -6 4 8 2 17 -3 20 -6 4 -10 -3 -10 -14z"/>
<path d="M1695 6145 c-22 -14 -36 -25 -31 -25 10 0 76 40 76 46 0 6 -2 5 -45
-21z"/>
<path d="M1579 6053 l-34 -38 38 34 c20 19 37 36 37 38 0 8 -8 0 -41 -34z"/>
<path d="M4480 5390 c-9 -6 -10 -10 -3 -10 6 0 15 5 18 10 8 12 4 12 -15 0z"/>
<path d="M4496 5361 c5 -5 25 -12 44 -15 l35 -6 -35 14 c-42 17 -58 20 -44 7z"/>
<path d="M4225 5230 c27 -12 43 -12 25 0 -8 5 -22 9 -30 9 -10 0 -8 -3 5 -9z"/>
<path d="M4285 5210 c11 -5 27 -9 35 -9 9 0 8 4 -5 9 -11 5 -27 9 -35 9 -9 0
-8 -4 5 -9z"/>
<path d="M4418 5183 c7 -3 16 -2 19 1 4 3 -2 6 -13 5 -11 0 -14 -3 -6 -6z"/>
<path d="M2590 5170 c-20 -6 -21 -8 -5 -8 11 0 29 3 40 8 25 11 -1 11 -35 0z"/>
<path d="M1406 4722 c-3 -6 3 -12 15 -15 12 -3 19 -1 16 6 -5 15 -24 20 -31 9z"/>
<path d="M4507 4199 c-24 -14 -56 -19 -61 -10 -8 13 -106 13 -106 1 0 -8 -15
-10 -50 -5 -53 7 -83 -1 -59 -16 11 -7 10 -9 -3 -9 -9 0 -20 5 -23 10 -3 6
-17 10 -31 10 -13 0 -24 -4 -24 -10 0 -12 -67 -14 -74 -2 -7 11 -133 6 -175
-7 -19 -6 -45 -8 -58 -4 -28 6 -66 -10 -105 -46 -16 -14 -28 -21 -28 -17 0 5
-7 3 -15 -4 -8 -7 -15 -9 -15 -4 0 4 -6 -1 -14 -12 -14 -18 -15 -18 -25 6 -9
24 -10 24 -10 3 -1 -12 -10 -27 -21 -33 -11 -6 -20 -21 -21 -33 -1 -21 -1 -21
-9 3 -6 18 -8 20 -9 7 -1 -10 -15 -24 -33 -32 -30 -12 -34 -12 -40 6 -5 12
-17 19 -34 19 -19 0 -25 -4 -21 -15 4 -8 2 -17 -4 -21 -14 -8 -1 -84 18 -103
9 -8 34 -18 57 -21 25 -4 40 -11 38 -18 -4 -19 25 -46 31 -29 3 6 6 3 6 -7 1
-21 68 -147 85 -159 6 -4 28 -5 50 -2 22 3 44 1 51 -5 10 -8 19 -8 34 -1 29
16 36 14 51 -14 12 -23 45 -42 64 -37 4 2 25 -10 45 -25 20 -15 47 -28 61 -29
29 -1 90 24 90 37 0 5 15 9 33 10 29 1 30 2 7 8 -40 11 -67 111 -30 111 5 0
10 -7 10 -15 0 -12 5 -11 29 2 28 17 29 16 55 -13 14 -16 31 -41 38 -55 9 -21
21 -28 53 -33 49 -6 105 0 155 18 34 13 92 13 252 2 61 -4 79 -2 89 10 8 9 26
14 48 13 77 -4 150 12 171 38 14 19 17 30 10 43 -13 24 -68 69 -107 88 -23 11
-29 18 -21 24 8 5 1 8 -19 8 -18 0 -33 5 -33 11 0 7 -12 9 -34 5 -83 -16 -333
-6 -493 20 -37 6 -44 29 -13 39 11 4 90 8 175 9 149 3 155 2 155 -17 0 -17 4
-19 38 -12 20 5 60 7 89 6 29 -1 70 3 93 8 24 5 40 5 40 0 0 -6 22 -7 53 -3
46 6 51 5 39 -8 -10 -13 -10 -17 4 -22 28 -11 54 -6 54 9 0 10 10 15 33 15 17
1 43 7 57 15 23 13 24 14 6 21 -46 18 -129 137 -103 148 7 2 0 5 -15 5 -16 1
-37 10 -49 22 -14 14 -36 22 -69 24 -27 1 -63 11 -82 23 -19 12 -54 24 -78 27
-25 4 -56 10 -70 15 -42 14 -164 20 -183 9z m-662 -59 c-3 -5 -11 -10 -16 -10
-6 0 -7 5 -4 10 3 6 11 10 16 10 6 0 7 -4 4 -10z m-381 -185 c-4 -8 -11 -15
-16 -15 -6 0 -5 6 2 15 7 8 14 15 16 15 2 0 1 -7 -2 -15z m1151 -295 c-3 -5
-13 -10 -21 -10 -8 0 -12 5 -9 10 3 6 13 10 21 10 8 0 12 -4 9 -10z"/>
<path d="M1520 4044 c0 -6 17 -22 119 -113 19 -17 37 -28 40 -25 6 5 -139 143
-151 144 -5 0 -8 -3 -8 -6z"/>
<path d="M1733 3897 c5 -15 37 -22 37 -9 0 5 -9 12 -21 15 -13 3 -19 1 -16 -6z"/>
<path d="M4885 3880 c-3 -5 -1 -10 4 -10 6 0 11 5 11 10 0 6 -2 10 -4 10 -3 0
-8 -4 -11 -10z"/>
<path d="M2505 3660 c3 -5 11 -10 16 -10 6 0 7 5 4 10 -3 6 -11 10 -16 10 -6
0 -7 -4 -4 -10z"/>
<path d="M4175 3560 c3 -5 10 -10 16 -10 5 0 9 5 9 10 0 6 -7 10 -16 10 -8 0
-12 -4 -9 -10z"/>
<path d="M4350 3530 c0 -5 5 -10 11 -10 5 0 7 5 4 10 -3 6 -8 10 -11 10 -2 0
-4 -4 -4 -10z"/>
<path d="M2653 3507 c-25 -11 -31 -27 -10 -27 19 0 52 26 41 32 -5 3 -19 1
-31 -5z"/>
<path d="M5960 3510 c0 -5 5 -10 11 -10 5 0 7 5 4 10 -3 6 -8 10 -11 10 -2 0
-4 -4 -4 -10z"/>
<path d="M2710 3476 c0 -9 -21 -21 -55 -31 -30 -8 -55 -20 -55 -26 0 -12 28
-5 89 25 46 21 65 46 37 46 -9 0 -16 -6 -16 -14z"/>
<path d="M4388 3403 c12 -2 30 -2 40 0 9 3 -1 5 -23 4 -22 0 -30 -2 -17 -4z"/>
<path d="M6431 3004 c-22 -28 -28 -87 -12 -113 11 -17 35 -5 81 44 l35 36 -35
29 c-19 16 -38 30 -42 30 -4 0 -16 -12 -27 -26z"/>
<path d="M6590 3010 c0 -5 5 -10 11 -10 5 0 7 5 4 10 -3 6 -8 10 -11 10 -2 0
-4 -4 -4 -10z"/>
<path d="M3803 2531 c-16 -27 -31 -40 -53 -45 -16 -3 -43 -9 -58 -12 -17 -3
-54 3 -93 16 -95 32 -156 36 -225 15 -79 -24 -118 -49 -143 -90 -19 -33 -24
-35 -71 -35 -47 0 -51 -2 -48 -22 2 -16 -3 -23 -21 -28 l-24 -6 26 -17 c31
-20 34 -47 11 -82 -12 -18 -13 -28 -5 -44 6 -11 11 -29 11 -41 0 -30 36 -96
61 -114 23 -16 52 -8 74 20 6 8 34 14 65 15 30 1 61 6 67 12 9 6 15 5 18 -5 6
-15 65 -13 65 2 0 5 10 12 23 16 12 4 28 15 35 26 7 10 18 16 23 13 18 -11 10
67 -8 81 -16 12 -15 13 15 14 36 0 42 14 12 30 -13 7 -20 21 -20 40 0 24 6 30
34 40 19 6 40 17 46 25 6 8 35 21 64 29 83 24 135 77 151 154 9 43 -5 40 -32
-7z m-449 -147 c28 -11 17 -30 -24 -44 -34 -11 -42 -11 -65 4 -36 24 -31 34
18 39 23 2 45 4 49 5 3 1 13 -1 22 -4z m76 -125 c0 -11 -4 -17 -10 -14 -5 3
-10 13 -10 21 0 8 5 14 10 14 6 0 10 -9 10 -21z"/>
<path d="M2862 2463 c2 -10 28 -32 58 -50 74 -44 80 -46 87 -40 9 9 -67 76
-104 93 -41 18 -45 18 -41 -3z"/>
<path d="M5576 2467 c3 -10 9 -15 12 -12 3 3 0 11 -7 18 -10 9 -11 8 -5 -6z"/>
<path d="M3630 2125 c-10 -12 -10 -15 3 -15 19 0 31 16 18 24 -5 3 -14 -1 -21
-9z"/>
<path d="M3690 2085 c0 -14 5 -25 10 -25 6 0 10 11 10 25 0 14 -4 25 -10 25
-5 0 -10 -11 -10 -25z"/>
<path d="M4236 2025 c7 -35 9 -38 25 -33 8 3 8 8 -3 19 -8 8 -18 21 -21 29 -4
8 -4 2 -1 -15z"/>
<path d="M2573 2006 c-13 -6 -23 -18 -23 -28 0 -9 -4 -20 -10 -23 -5 -3 -10
-22 -10 -41 0 -22 4 -33 10 -29 6 4 8 15 5 25 -6 20 9 35 25 25 8 -5 7 -11 -1
-21 -8 -10 -8 -14 0 -14 6 0 11 -8 11 -19 0 -10 7 -24 15 -31 8 -7 12 -17 9
-22 -3 -5 3 -12 15 -15 27 -7 27 -20 1 -28 -28 -9 -25 -33 6 -47 19 -9 33 -9
55 -1 24 10 31 9 36 -3 3 -8 17 -14 33 -14 31 0 84 -15 121 -35 19 -10 35 -12
60 -5 45 11 219 6 294 -9 68 -14 391 -9 422 7 24 12 128 10 127 -3 -1 -5 -5
-21 -8 -35 l-7 -25 18 21 c10 12 34 27 53 33 30 10 37 9 47 -6 17 -23 16 -33
-4 -33 -9 0 -14 -3 -10 -6 3 -4 14 -3 24 1 10 5 26 7 36 6 9 -1 17 3 17 8 0 6
-7 11 -15 11 -8 0 -15 7 -15 15 0 23 19 18 31 -8 10 -23 13 -23 52 -11 107 32
155 44 195 50 37 6 45 4 59 -16 12 -17 22 -21 43 -16 19 3 33 0 41 -10 7 -9
25 -14 42 -12 24 2 32 9 38 32 5 17 4 35 -1 41 -13 15 -2 25 26 25 12 0 24 6
27 14 9 22 -4 56 -20 56 -10 0 -12 -6 -8 -20 9 -29 -16 -26 -45 5 -13 14 -29
25 -35 25 -7 0 -20 9 -30 20 -10 11 -30 20 -45 20 -19 0 -29 6 -33 20 -3 13
-13 20 -29 19 -26 0 -71 -17 -50 -18 7 -1 10 -6 6 -12 -3 -6 6 -23 21 -39 15
-16 22 -30 17 -34 -22 -13 -226 1 -259 17 -18 10 -39 17 -48 17 -9 0 -26 5
-38 12 -12 6 -31 13 -42 14 -11 1 -50 5 -87 9 -49 6 -72 4 -83 -5 -12 -10 -16
-9 -21 4 -3 9 -12 16 -20 16 -8 0 -14 5 -14 10 0 14 -227 4 -287 -11 -23 -6
-55 -9 -71 -7 -25 4 -28 1 -24 -16 3 -12 10 -24 16 -28 8 -6 6 -11 -4 -18 -11
-7 -21 -4 -35 10 -17 18 -18 23 -6 43 7 12 10 19 6 15 -4 -4 -22 -1 -41 7 -43
18 -141 22 -156 7 -7 -7 -25 -12 -41 -12 -15 0 -52 -11 -80 -24 -60 -27 -117
-39 -141 -30 -22 8 -69 101 -56 109 18 11 10 25 -15 25 -14 0 -25 -4 -25 -10
0 -5 -4 -10 -10 -10 -5 0 -7 7 -3 16 6 15 -15 65 -26 63 -3 -1 -16 -6 -28 -13z
m72 -136 c3 -5 2 -10 -4 -10 -5 0 -13 5 -16 10 -3 6 -2 10 4 10 5 0 13 -4 16
-10z m920 -30 c3 -5 -1 -10 -10 -10 -9 0 -13 5 -10 10 3 6 8 10 10 10 2 0 7
-4 10 -10z"/>
<path d="M4130 1951 c0 -11 4 -21 9 -21 18 0 21 18 6 30 -13 10 -15 9 -15 -9z"/>
<path d="M4194 1945 c-18 -14 -18 -14 4 -15 13 0 21 4 18 9 -4 5 0 12 6 14 7
3 8 6 2 6 -5 1 -19 -6 -30 -14z"/>
<path d="M5950 1950 c0 -5 5 -10 10 -10 6 0 10 5 10 10 0 6 -4 10 -10 10 -5 0
-10 -4 -10 -10z"/>
<path d="M4410 1919 c7 -11 14 -18 17 -15 8 8 -5 36 -17 36 -7 0 -7 -6 0 -21z"/>
<path d="M4310 1911 c0 -10 6 -24 14 -30 11 -9 14 -7 14 13 0 14 -7 27 -14 30
-9 3 -14 -2 -14 -13z"/>
<path d="M4276 1911 c-4 -7 -5 -15 -2 -18 9 -9 19 4 14 18 -4 11 -6 11 -12 0z"/>
<path d="M5916 1901 c-7 -11 28 -43 37 -34 4 3 7 15 7 25 0 19 -34 26 -44 9z"/>
<path d="M4390 1891 c0 -5 5 -13 10 -16 6 -3 10 -2 10 4 0 5 -4 13 -10 16 -5
3 -10 2 -10 -4z"/>
<path d="M2530 1860 c0 -5 5 -10 10 -10 6 0 10 5 10 10 0 6 -4 10 -10 10 -5 0
-10 -4 -10 -10z"/>
<path d="M4410 1856 c0 -2 7 -6 15 -10 8 -3 15 -1 15 4 0 6 -7 10 -15 10 -8 0
-15 -2 -15 -4z"/>
<path d="M5850 1726 c0 -14 4 -27 8 -30 5 -3 6 8 4 25 -5 35 -12 38 -12 5z"/>
<path d="M5715 1639 c-4 -6 -5 -13 -2 -16 7 -7 27 6 27 18 0 12 -17 12 -25 -2z"/>
<path d="M3635 1560 c-8 -13 8 -18 29 -10 19 6 19 7 -2 12 -12 4 -24 2 -27 -2z"/>
<path d="M3670 1520 c0 -5 4 -10 9 -10 6 0 13 5 16 10 3 6 -1 10 -9 10 -9 0
-16 -4 -16 -10z"/>
<path d="M3347 1453 c-12 -13 -19 -14 -30 -5 -11 9 -23 9 -53 -4 -32 -13 -44
-14 -75 -4 -29 10 -48 10 -88 0 -29 -7 -65 -10 -82 -8 -35 5 -52 -17 -28 -36
9 -6 18 -19 22 -28 3 -10 15 -18 26 -18 10 0 22 -7 25 -15 4 -10 16 -15 33
-13 23 2 28 -1 28 -19 0 -27 39 -73 63 -73 11 0 34 -8 53 -17 37 -19 151 -19
198 -2 16 7 27 6 31 -1 8 -13 60 10 60 28 0 6 -4 12 -10 12 -5 0 -10 6 -10 14
0 8 6 14 13 13 40 -1 48 3 42 24 -5 14 -2 25 6 30 19 11 -49 70 -73 63 -10 -3
-22 3 -30 15 -9 14 -23 21 -45 21 -20 0 -37 7 -46 20 -12 18 -15 18 -30 3z
m63 -213 c0 -5 -2 -10 -4 -10 -3 0 -8 5 -11 10 -3 6 -1 10 4 10 6 0 11 -4 11
-10z m-7 -27 c-7 -2 -19 -2 -25 0 -7 3 -2 5 12 5 14 0 19 -2 13 -5z"/>
<path d="M5520 1460 c-9 -6 -10 -10 -3 -10 6 0 15 5 18 10 8 12 4 12 -15 0z"/>
<path d="M6070 1363 c0 -22 2 -25 10 -13 13 20 13 40 0 40 -5 0 -10 -12 -10
-27z"/>
<path d="M5320 1250 c-8 -5 -11 -12 -8 -15 4 -4 17 0 30 9 24 17 5 23 -22 6z"/>
<path d="M6095 1170 c-11 -17 5 -32 21 -19 8 6 14 15 14 20 0 12 -27 11 -35
-1z"/>
<path d="M4780 1019 c0 -5 5 -7 10 -4 6 3 10 8 10 11 0 2 -4 4 -10 4 -5 0 -10
-5 -10 -11z"/>
<path d="M4652 978 c-20 -20 -13 -38 12 -38 30 0 42 26 17 39 -12 7 -22 6 -29
-1z"/>
<path d="M4723 956 c-26 -12 -30 -26 -9 -26 13 0 43 28 35 33 -2 2 -14 -2 -26
-7z"/>
<path d="M4568 933 c6 -2 18 -2 25 0 6 3 1 5 -13 5 -14 0 -19 -2 -12 -5z"/>
<path d="M6111 894 c0 -11 3 -14 6 -6 3 7 2 16 -1 19 -3 4 -6 -2 -5 -13z"/>
<path d="M4048 799 c-3 -22 -15 -32 -52 -44 -28 -8 -16 -13 20 -8 29 5 54 34
54 63 0 20 -19 9 -22 -11z"/>
<path d="M3885 790 c-3 -5 1 -10 9 -10 9 0 16 5 16 10 0 6 -4 10 -9 10 -6 0
-13 -4 -16 -10z"/>
<path d="M3010 760 c0 -5 5 -10 10 -10 6 0 10 5 10 10 0 6 -4 10 -10 10 -5 0
-10 -4 -10 -10z"/>
<path d="M6057 763 c-4 -3 -7 -11 -7 -17 0 -6 5 -5 12 2 6 6 9 14 7 17 -3 3
-9 2 -12 -2z"/>
<path d="M6158 731 c-4 -14 -4 -30 1 -35 4 -6 5 -24 1 -41 -4 -25 -7 -27 -13
-12 -4 10 -11 15 -17 12 -13 -8 -13 -165 0 -165 12 0 11 -62 -2 -124 -10 -47
-10 -49 18 -73 25 -21 30 -22 32 -8 6 26 -7 48 -23 41 -8 -3 -15 -3 -15 0 0
10 41 84 46 84 4 0 3 -20 -1 -45 -3 -25 -3 -45 2 -44 4 1 17 1 27 0 19 -1 19
-2 -2 -21 -12 -12 -22 -27 -22 -35 0 -7 -3 -22 -6 -32 -4 -13 -3 -14 3 -5 6 7
14 12 19 11 5 -1 16 -1 24 0 12 1 13 3 1 10 -7 5 -10 14 -6 21 6 9 9 9 16 -1
10 -16 16 -11 19 16 5 44 -1 63 -20 68 -17 4 -20 14 -22 64 0 32 0 81 1 108 2
40 -2 55 -19 73 -22 23 -23 41 -7 107 2 11 2 14 0 8 -8 -22 -22 -14 -25 15
l-3 27 -7 -24z m2 -141 c0 -5 -4 -10 -10 -10 -5 0 -10 5 -10 10 0 6 5 10 10
10 6 0 10 -4 10 -10z m0 -40 c0 -5 -4 -10 -10 -10 -5 0 -10 5 -10 10 0 6 5 10
10 10 6 0 10 -4 10 -10z"/>
<path d="M2146 700 c-19 -25 -38 -40 -55 -42 -19 -2 -25 -8 -23 -21 2 -10 -7
-31 -18 -47 -12 -17 -17 -30 -11 -30 6 0 11 5 11 10 0 6 5 10 10 10 6 0 10 -7
10 -15 0 -8 -4 -15 -10 -15 -5 0 -10 -4 -10 -10 0 -26 40 -4 94 50 49 50 55
60 37 60 -18 0 -20 3 -11 19 5 11 7 27 4 35 -3 9 -1 16 5 16 6 0 11 5 11 10 0
19 -15 9 -44 -30z m-36 -112 c0 -6 -7 -7 -16 -4 -9 3 -18 6 -20 6 -3 0 -3 4 1
10 7 11 35 2 35 -12z"/>
<path d="M3529 711 c-13 -11 -20 -23 -16 -27 4 -5 11 -3 15 3 4 6 16 11 27 10
11 -1 20 4 20 12 0 23 -20 23 -46 2z"/>
<path d="M3170 690 c0 -5 5 -10 10 -10 6 0 10 5 10 10 0 6 -4 10 -10 10 -5 0
-10 -4 -10 -10z"/>
<path d="M5401 603 c-7 -8 -10 -17 -7 -20 9 -9 29 13 25 25 -2 6 -10 3 -18 -5z"/>
<path d="M668 493 c7 -3 16 -2 19 1 4 3 -2 6 -13 5 -11 0 -14 -3 -6 -6z"/>
<path d="M624 458 c-3 -13 -13 -31 -22 -40 -12 -15 -13 -18 -1 -18 12 0 12 -2
0 -9 -8 -5 -21 -7 -30 -4 -12 3 -13 2 -4 -4 10 -7 4 -19 -22 -47 -63 -69 -32
-65 35 5 8 9 20 14 26 12 6 -2 -1 -17 -17 -34 -35 -37 -36 -49 -6 -49 20 -1
21 -1 4 -11 -10 -6 -29 -8 -43 -5 -18 5 -24 2 -24 -10 0 -14 8 -16 45 -12 25
3 45 2 45 -3 0 -5 -12 -9 -27 -9 -25 -1 -73 -29 -73 -44 0 -3 9 -6 19 -6 11 0
23 -4 26 -10 6 -10 -6 -14 -37 -11 -10 1 -24 -11 -33 -29 l-16 -31 23 13 c13
7 26 18 30 23 4 6 8 0 8 -11 0 -12 -7 -24 -15 -28 -22 -8 -18 -26 5 -26 17 0
18 -3 8 -25 -6 -13 -16 -26 -22 -28 -6 -3 2 -3 18 -1 16 2 37 14 47 26 l19 21
0 -27 0 -27 118 3 117 3 3 38 c2 20 0 37 -5 37 -4 0 -9 15 -9 33 -4 88 -36
214 -60 232 -10 7 -18 26 -19 43 -2 36 -20 62 -46 62 -22 0 -34 16 -17 23 7 3
1 6 -14 6 -19 1 -29 -5 -34 -21z m56 -188 c-8 -5 -24 -9 -35 -9 -16 1 -16 2 5
9 35 11 48 11 30 0z m-100 -69 c0 -12 -20 -25 -27 -18 -7 7 6 27 18 27 5 0 9
-4 9 -9z"/>
<path d="M6348 388 c-3 -7 2 -30 10 -52 7 -22 15 -63 17 -89 2 -27 8 -54 14
-60 6 -6 11 -21 11 -34 0 -28 36 -120 55 -139 11 -11 54 -14 205 -14 l191 0
-12 23 c-6 12 -32 52 -56 89 -92 140 -413 343 -435 276z"/>
<path d="M515 350 c-3 -5 -1 -10 4 -10 6 0 11 5 11 10 0 6 -2 10 -4 10 -3 0
-8 -4 -11 -10z"/>
<path d="M5357 323 c-12 -12 -7 -22 8 -17 8 4 15 10 15 15 0 11 -14 12 -23 2z"/>
<path d="M848 303 c7 -3 16 -2 19 1 4 3 -2 6 -13 5 -11 0 -14 -3 -6 -6z"/>
<path d="M2360 250 c-13 -8 -12 -10 3 -10 9 0 17 5 17 10 0 12 -1 12 -20 0z"/>
<path d="M5184 237 c-22 -11 -48 -64 -34 -72 9 -5 80 61 80 75 0 12 -18 11
-46 -3z"/>
<path d="M2338 223 c7 -3 16 -2 19 1 4 3 -2 6 -13 5 -11 0 -14 -3 -6 -6z"/>
<path d="M1003 175 c-17 -19 -16 -25 2 -25 8 0 15 5 15 10 0 6 7 10 16 10 8 0
12 5 9 10 -9 14 -28 12 -42 -5z"/>
<path d="M1516 149 c-12 -11 -15 -19 -7 -19 13 0 41 24 41 34 0 11 -15 5 -34
-15z"/>
<path d="M5255 90 c-3 -5 -1 -10 4 -10 6 0 11 5 11 10 0 6 -2 10 -4 10 -3 0
-8 -4 -11 -10z"/>
<path d="M460 52 c0 -5 -11 -14 -25 -20 -29 -13 -33 -32 -7 -32 21 1 56 46 42
55 -5 3 -10 2 -10 -3z"/>
</g>
</svg>
